%TF.GenerationSoftware,KiCad,Pcbnew,8.0.3*%
%TF.CreationDate,2024-10-02T14:15:05+10:00*%
%TF.ProjectId,attiny16-breakout,61747469-6e79-4313-962d-627265616b6f,rev?*%
%TF.SameCoordinates,Original*%
%TF.FileFunction,Legend,Bot*%
%TF.FilePolarity,Positive*%
%FSLAX46Y46*%
G04 Gerber Fmt 4.6, Leading zero omitted, Abs format (unit mm)*
G04 Created by KiCad (PCBNEW 8.0.3) date 2024-10-02 14:15:05*
%MOMM*%
%LPD*%
G01*
G04 APERTURE LIST*
%ADD10C,0.000000*%
G04 APERTURE END LIST*
D10*
G36*
X149445785Y-100811356D02*
G01*
X149445559Y-100814127D01*
X149445386Y-100815425D01*
X149445173Y-100816666D01*
X149444918Y-100817854D01*
X149444623Y-100818988D01*
X149444286Y-100820072D01*
X149443908Y-100821106D01*
X149443488Y-100822092D01*
X149443025Y-100823033D01*
X149442520Y-100823929D01*
X149441972Y-100824783D01*
X149441382Y-100825596D01*
X149440747Y-100826370D01*
X149440069Y-100827106D01*
X149439347Y-100827807D01*
X149438581Y-100828473D01*
X149437770Y-100829108D01*
X149436915Y-100829712D01*
X149436014Y-100830286D01*
X149434075Y-100831356D01*
X149431953Y-100832331D01*
X149429644Y-100833223D01*
X149427146Y-100834048D01*
X149424456Y-100834819D01*
X149424785Y-100832543D01*
X149425274Y-100830319D01*
X149425917Y-100828153D01*
X149426709Y-100826052D01*
X149427645Y-100824022D01*
X149428718Y-100822071D01*
X149429925Y-100820205D01*
X149431258Y-100818430D01*
X149432713Y-100816754D01*
X149434285Y-100815183D01*
X149435967Y-100813723D01*
X149437755Y-100812383D01*
X149439643Y-100811167D01*
X149441626Y-100810084D01*
X149443698Y-100809140D01*
X149445853Y-100808341D01*
X149445785Y-100811356D01*
G37*
G36*
X152242790Y-101654101D02*
G01*
X152256161Y-101654635D01*
X152269506Y-101655674D01*
X152282813Y-101657220D01*
X152296065Y-101659271D01*
X152300989Y-101660262D01*
X152305937Y-101661104D01*
X152310907Y-101661793D01*
X152315894Y-101662332D01*
X152320895Y-101662718D01*
X152325906Y-101662953D01*
X152330925Y-101663034D01*
X152335947Y-101662964D01*
X152350220Y-101662444D01*
X152364437Y-101662406D01*
X152378603Y-101662808D01*
X152392721Y-101663612D01*
X152406795Y-101664778D01*
X152420829Y-101666267D01*
X152448795Y-101670055D01*
X152476651Y-101674659D01*
X152504428Y-101679764D01*
X152559876Y-101690210D01*
X152564625Y-101691160D01*
X152569183Y-101692266D01*
X152573549Y-101693525D01*
X152577724Y-101694935D01*
X152581708Y-101696493D01*
X152585501Y-101698197D01*
X152589104Y-101700044D01*
X152592515Y-101702032D01*
X152595736Y-101704158D01*
X152598766Y-101706419D01*
X152601605Y-101708814D01*
X152604254Y-101711339D01*
X152606712Y-101713992D01*
X152608981Y-101716771D01*
X152611058Y-101719673D01*
X152612946Y-101722695D01*
X152614644Y-101725836D01*
X152616151Y-101729092D01*
X152617469Y-101732460D01*
X152618596Y-101735940D01*
X152619534Y-101739527D01*
X152620283Y-101743220D01*
X152620841Y-101747016D01*
X152621210Y-101750912D01*
X152621390Y-101754906D01*
X152621380Y-101758996D01*
X152621181Y-101763178D01*
X152620792Y-101767451D01*
X152620215Y-101771811D01*
X152619448Y-101776257D01*
X152618493Y-101780786D01*
X152617348Y-101785395D01*
X152616705Y-101788005D01*
X152616166Y-101790636D01*
X152615733Y-101793284D01*
X152615406Y-101795946D01*
X152615184Y-101798619D01*
X152615069Y-101801300D01*
X152615061Y-101803985D01*
X152615159Y-101806672D01*
X152615305Y-101814162D01*
X152615091Y-101821026D01*
X152614843Y-101824229D01*
X152614496Y-101827283D01*
X152614048Y-101830192D01*
X152613496Y-101832957D01*
X152612837Y-101835581D01*
X152612069Y-101838067D01*
X152611188Y-101840417D01*
X152610192Y-101842635D01*
X152609077Y-101844723D01*
X152607842Y-101846684D01*
X152606483Y-101848520D01*
X152604997Y-101850234D01*
X152603381Y-101851828D01*
X152601633Y-101853306D01*
X152599750Y-101854670D01*
X152597729Y-101855923D01*
X152595567Y-101857067D01*
X152593261Y-101858105D01*
X152590809Y-101859040D01*
X152588207Y-101859874D01*
X152585454Y-101860610D01*
X152582545Y-101861252D01*
X152579478Y-101861800D01*
X152576250Y-101862259D01*
X152569301Y-101862917D01*
X152561675Y-101863249D01*
X152539289Y-101864032D01*
X152516896Y-101864523D01*
X152494502Y-101864720D01*
X152472107Y-101864624D01*
X152449716Y-101864234D01*
X152427331Y-101863551D01*
X152404955Y-101862575D01*
X152382591Y-101861305D01*
X152382591Y-101861306D01*
X152371364Y-101861500D01*
X152359802Y-101861427D01*
X152335781Y-101860724D01*
X152284941Y-101858800D01*
X152258572Y-101858555D01*
X152245248Y-101858825D01*
X152231868Y-101859438D01*
X152218461Y-101860455D01*
X152205054Y-101861938D01*
X152191676Y-101863946D01*
X152178355Y-101866542D01*
X152158162Y-101870705D01*
X152137911Y-101874411D01*
X152097269Y-101880742D01*
X152015682Y-101891129D01*
X151974881Y-101896352D01*
X151934173Y-101902371D01*
X151893628Y-101909772D01*
X151873441Y-101914172D01*
X151853321Y-101919136D01*
X151818230Y-101927665D01*
X151782843Y-101935076D01*
X151747224Y-101941599D01*
X151711434Y-101947464D01*
X151567817Y-101968957D01*
X151556840Y-101970738D01*
X151545890Y-101972582D01*
X151534956Y-101974536D01*
X151524029Y-101976649D01*
X151516661Y-101978565D01*
X151509240Y-101980110D01*
X151501779Y-101981286D01*
X151494292Y-101982093D01*
X151486791Y-101982534D01*
X151479290Y-101982609D01*
X151471803Y-101982321D01*
X151464343Y-101981671D01*
X151456923Y-101980660D01*
X151449557Y-101979290D01*
X151442258Y-101977562D01*
X151435039Y-101975478D01*
X151427913Y-101973040D01*
X151420895Y-101970248D01*
X151413998Y-101967104D01*
X151407234Y-101963610D01*
X151406355Y-101962950D01*
X151405455Y-101962326D01*
X151404533Y-101961737D01*
X151403592Y-101961184D01*
X151402632Y-101960667D01*
X151401654Y-101960188D01*
X151400660Y-101959745D01*
X151399650Y-101959340D01*
X151398626Y-101958974D01*
X151397589Y-101958646D01*
X151396539Y-101958356D01*
X151395478Y-101958106D01*
X151394407Y-101957896D01*
X151393327Y-101957726D01*
X151392238Y-101957596D01*
X151391144Y-101957508D01*
X151388628Y-101957760D01*
X151386274Y-101957853D01*
X151384073Y-101957796D01*
X151382018Y-101957594D01*
X151380102Y-101957256D01*
X151378317Y-101956788D01*
X151376655Y-101956197D01*
X151375111Y-101955490D01*
X151373675Y-101954675D01*
X151372341Y-101953759D01*
X151371101Y-101952749D01*
X151369947Y-101951651D01*
X151368873Y-101950474D01*
X151367871Y-101949224D01*
X151366933Y-101947908D01*
X151366053Y-101946533D01*
X151365221Y-101945107D01*
X151364432Y-101943637D01*
X151362951Y-101940591D01*
X151360169Y-101934282D01*
X151358748Y-101931132D01*
X151357230Y-101928061D01*
X151356415Y-101926573D01*
X151355553Y-101925126D01*
X151354637Y-101923727D01*
X151353659Y-101922384D01*
X151352501Y-101921079D01*
X151351420Y-101919732D01*
X151350414Y-101918346D01*
X151349485Y-101916924D01*
X151348631Y-101915469D01*
X151347854Y-101913984D01*
X151347153Y-101912471D01*
X151346528Y-101910933D01*
X151345979Y-101909373D01*
X151345506Y-101907795D01*
X151345109Y-101906200D01*
X151344788Y-101904592D01*
X151344542Y-101902974D01*
X151344373Y-101901348D01*
X151344279Y-101899717D01*
X151344261Y-101898085D01*
X151344319Y-101896453D01*
X151344452Y-101894825D01*
X151344661Y-101893203D01*
X151344946Y-101891591D01*
X151345306Y-101889992D01*
X151345741Y-101888407D01*
X151346253Y-101886841D01*
X151346839Y-101885295D01*
X151347502Y-101883773D01*
X151348239Y-101882278D01*
X151349052Y-101880811D01*
X151349940Y-101879378D01*
X151350904Y-101877979D01*
X151351943Y-101876618D01*
X151353057Y-101875298D01*
X151354246Y-101874021D01*
X151355115Y-101872874D01*
X151355951Y-101871725D01*
X151356744Y-101870570D01*
X151357484Y-101869407D01*
X151358160Y-101868233D01*
X151358761Y-101867047D01*
X151359279Y-101865844D01*
X151359503Y-101865236D01*
X151359701Y-101864623D01*
X151359874Y-101864004D01*
X151360019Y-101863380D01*
X151360136Y-101862750D01*
X151360222Y-101862114D01*
X151360277Y-101861471D01*
X151360299Y-101860821D01*
X151360287Y-101860164D01*
X151360240Y-101859500D01*
X151360157Y-101858827D01*
X151360035Y-101858146D01*
X151359875Y-101857457D01*
X151359674Y-101856759D01*
X151359431Y-101856051D01*
X151359146Y-101855334D01*
X151358816Y-101854607D01*
X151358441Y-101853870D01*
X151357977Y-101853077D01*
X151357449Y-101852297D01*
X151356864Y-101851528D01*
X151356228Y-101850769D01*
X151354832Y-101849278D01*
X151353315Y-101847813D01*
X151350140Y-101844922D01*
X151348590Y-101843476D01*
X151347140Y-101842017D01*
X151345842Y-101840535D01*
X151345268Y-101839782D01*
X151344752Y-101839020D01*
X151344302Y-101838247D01*
X151343925Y-101837462D01*
X151343626Y-101836664D01*
X151343414Y-101835852D01*
X151343295Y-101835024D01*
X151343276Y-101834180D01*
X151343364Y-101833317D01*
X151343564Y-101832435D01*
X151343886Y-101831533D01*
X151344334Y-101830608D01*
X151344916Y-101829661D01*
X151345639Y-101828690D01*
X151348179Y-101825424D01*
X151350630Y-101822053D01*
X151355358Y-101815101D01*
X151360007Y-101808045D01*
X151364759Y-101801098D01*
X151367232Y-101797732D01*
X151369799Y-101794474D01*
X151372483Y-101791349D01*
X151375308Y-101788385D01*
X151378296Y-101785608D01*
X151381470Y-101783045D01*
X151383134Y-101781851D01*
X151384853Y-101780722D01*
X151386630Y-101779659D01*
X151388468Y-101778666D01*
X151394838Y-101775272D01*
X151401145Y-101771764D01*
X151407386Y-101768144D01*
X151413561Y-101764412D01*
X151419667Y-101760569D01*
X151425703Y-101756615D01*
X151431668Y-101752553D01*
X151437560Y-101748383D01*
X151438882Y-101747352D01*
X151440238Y-101746374D01*
X151441627Y-101745449D01*
X151443047Y-101744578D01*
X151444496Y-101743762D01*
X151445973Y-101743000D01*
X151447477Y-101742295D01*
X151449005Y-101741646D01*
X151450556Y-101741054D01*
X151452128Y-101740521D01*
X151453721Y-101740045D01*
X151455331Y-101739629D01*
X151456958Y-101739272D01*
X151458600Y-101738976D01*
X151460256Y-101738740D01*
X151461923Y-101738567D01*
X151472300Y-101738670D01*
X151482616Y-101738334D01*
X151492877Y-101737606D01*
X151503090Y-101736531D01*
X151513261Y-101735157D01*
X151523394Y-101733530D01*
X151543574Y-101729704D01*
X151583755Y-101721068D01*
X151603851Y-101717002D01*
X151624014Y-101713603D01*
X151645566Y-101711285D01*
X151667077Y-101708648D01*
X151688544Y-101705690D01*
X151709964Y-101702414D01*
X151731332Y-101698820D01*
X151752646Y-101694907D01*
X151773902Y-101690678D01*
X151795096Y-101686132D01*
X151799453Y-101685245D01*
X151803834Y-101684502D01*
X151808234Y-101683903D01*
X151812650Y-101683448D01*
X151817078Y-101683138D01*
X151821516Y-101682973D01*
X151825959Y-101682952D01*
X151830404Y-101683077D01*
X151852669Y-101682983D01*
X151874906Y-101682219D01*
X151897099Y-101680786D01*
X151919234Y-101678686D01*
X151941295Y-101675921D01*
X151963268Y-101672492D01*
X151985138Y-101668401D01*
X152006890Y-101663650D01*
X152011557Y-101662687D01*
X152016241Y-101661827D01*
X152020939Y-101661070D01*
X152025650Y-101660417D01*
X152030372Y-101659868D01*
X152035103Y-101659423D01*
X152039842Y-101659082D01*
X152044586Y-101658845D01*
X152049335Y-101658712D01*
X152054086Y-101658683D01*
X152058838Y-101658759D01*
X152063588Y-101658938D01*
X152068336Y-101659222D01*
X152073079Y-101659611D01*
X152077816Y-101660103D01*
X152082545Y-101660701D01*
X152095913Y-101661565D01*
X152109291Y-101662050D01*
X152122673Y-101662157D01*
X152136049Y-101661887D01*
X152149413Y-101661239D01*
X152162755Y-101660213D01*
X152176069Y-101658811D01*
X152189345Y-101657031D01*
X152202672Y-101655538D01*
X152216031Y-101654552D01*
X152229409Y-101654073D01*
X152242790Y-101654101D01*
G37*
G36*
X152335555Y-95882926D02*
G01*
X152336446Y-95883059D01*
X152337304Y-95883278D01*
X152338130Y-95883578D01*
X152338927Y-95883954D01*
X152339697Y-95884401D01*
X152340442Y-95884912D01*
X152341162Y-95885483D01*
X152341862Y-95886108D01*
X152342541Y-95886781D01*
X152343203Y-95887498D01*
X152344481Y-95889039D01*
X152345710Y-95890687D01*
X152348087Y-95894131D01*
X152349264Y-95895840D01*
X152350454Y-95897482D01*
X152351673Y-95899013D01*
X152352297Y-95899723D01*
X152352935Y-95900390D01*
X152355919Y-95903542D01*
X152358749Y-95906849D01*
X152361462Y-95910274D01*
X152364092Y-95913782D01*
X152369251Y-95920900D01*
X152371851Y-95924439D01*
X152374512Y-95927916D01*
X152377271Y-95931295D01*
X152380162Y-95934540D01*
X152383222Y-95937614D01*
X152386486Y-95940482D01*
X152388206Y-95941828D01*
X152389991Y-95943108D01*
X152391844Y-95944319D01*
X152393771Y-95945456D01*
X152395777Y-95946514D01*
X152397864Y-95947489D01*
X152400038Y-95948376D01*
X152402055Y-95949083D01*
X152400735Y-95950162D01*
X152399119Y-95951659D01*
X152397608Y-95953244D01*
X152396205Y-95954913D01*
X152394912Y-95956658D01*
X152393732Y-95958474D01*
X152392667Y-95960356D01*
X152391720Y-95962298D01*
X152390894Y-95964295D01*
X152390190Y-95966339D01*
X152389612Y-95968427D01*
X152389162Y-95970552D01*
X152388843Y-95972708D01*
X152388657Y-95974890D01*
X152388607Y-95977092D01*
X152388695Y-95979308D01*
X152389033Y-95983290D01*
X152389267Y-95987275D01*
X152389395Y-95991261D01*
X152389418Y-95995244D01*
X152389337Y-95999225D01*
X152389152Y-96003200D01*
X152388862Y-96007167D01*
X152388468Y-96011125D01*
X152387971Y-96015071D01*
X152387371Y-96019003D01*
X152386667Y-96022920D01*
X152385860Y-96026818D01*
X152384951Y-96030697D01*
X152383939Y-96034554D01*
X152382825Y-96038387D01*
X152381609Y-96042194D01*
X152386009Y-96043571D01*
X152390246Y-96045063D01*
X152394321Y-96046672D01*
X152398241Y-96048393D01*
X152402007Y-96050228D01*
X152405624Y-96052174D01*
X152409096Y-96054230D01*
X152412426Y-96056395D01*
X152415618Y-96058667D01*
X152418677Y-96061046D01*
X152421605Y-96063530D01*
X152424408Y-96066118D01*
X152427087Y-96068809D01*
X152429648Y-96071601D01*
X152432094Y-96074493D01*
X152434429Y-96077485D01*
X152436657Y-96080574D01*
X152438781Y-96083759D01*
X152442734Y-96090415D01*
X152446319Y-96097441D01*
X152449566Y-96104829D01*
X152452505Y-96112569D01*
X152455167Y-96120649D01*
X152457583Y-96129061D01*
X152459783Y-96137794D01*
X152462499Y-96150227D01*
X152464801Y-96162675D01*
X152466729Y-96175134D01*
X152468321Y-96187604D01*
X152470658Y-96212567D01*
X152472127Y-96237547D01*
X152473728Y-96287493D01*
X152474493Y-96312428D01*
X152475654Y-96337316D01*
X152485939Y-96502273D01*
X152487912Y-96543554D01*
X152489272Y-96584856D01*
X152489834Y-96626180D01*
X152489412Y-96667529D01*
X152489370Y-96684566D01*
X152489879Y-96701589D01*
X152491529Y-96735621D01*
X152492157Y-96752641D01*
X152492314Y-96769672D01*
X152492136Y-96778194D01*
X152491744Y-96786722D01*
X152491107Y-96795255D01*
X152490191Y-96803795D01*
X152489736Y-96808295D01*
X152489550Y-96812404D01*
X152489563Y-96814318D01*
X152489648Y-96816140D01*
X152489808Y-96817874D01*
X152490044Y-96819522D01*
X152490357Y-96821086D01*
X152490749Y-96822568D01*
X152491222Y-96823971D01*
X152491778Y-96825297D01*
X152492419Y-96826549D01*
X152493145Y-96827728D01*
X152493959Y-96828838D01*
X152494863Y-96829880D01*
X152495857Y-96830857D01*
X152496945Y-96831772D01*
X152498126Y-96832626D01*
X152499404Y-96833421D01*
X152500780Y-96834161D01*
X152502255Y-96834848D01*
X152503773Y-96835460D01*
X152503831Y-96835483D01*
X152505510Y-96836070D01*
X152507294Y-96836610D01*
X152509184Y-96837106D01*
X152513289Y-96837975D01*
X152517839Y-96838697D01*
X152522847Y-96839288D01*
X152528408Y-96839786D01*
X152533939Y-96840498D01*
X152539434Y-96841423D01*
X152544887Y-96842560D01*
X152550292Y-96843906D01*
X152555644Y-96845462D01*
X152560934Y-96847224D01*
X152566159Y-96849192D01*
X152707890Y-96909548D01*
X152743079Y-96925170D01*
X152778004Y-96941367D01*
X152812581Y-96958320D01*
X152846725Y-96976208D01*
X152875615Y-96992686D01*
X152904182Y-97009679D01*
X152932420Y-97027181D01*
X152960323Y-97045187D01*
X152987885Y-97063693D01*
X153015097Y-97082693D01*
X153041955Y-97102183D01*
X153068451Y-97122157D01*
X153094578Y-97142610D01*
X153120331Y-97163538D01*
X153145703Y-97184934D01*
X153170686Y-97206795D01*
X153195276Y-97229115D01*
X153219464Y-97251889D01*
X153243245Y-97275112D01*
X153266611Y-97298779D01*
X153297543Y-97330211D01*
X153328123Y-97361973D01*
X153358364Y-97394048D01*
X153388278Y-97426418D01*
X153417878Y-97459065D01*
X153447175Y-97491970D01*
X153476182Y-97525116D01*
X153504912Y-97558484D01*
X153532739Y-97592000D01*
X153559951Y-97626005D01*
X153586540Y-97660489D01*
X153612502Y-97695445D01*
X153637828Y-97730862D01*
X153662514Y-97766734D01*
X153686553Y-97803051D01*
X153709938Y-97839804D01*
X153742893Y-97892893D01*
X153775302Y-97946326D01*
X153839686Y-98053464D01*
X153846643Y-98064536D01*
X153853370Y-98075739D01*
X153859863Y-98087069D01*
X153866123Y-98098523D01*
X153872146Y-98110096D01*
X153877931Y-98121786D01*
X153883477Y-98133588D01*
X153888783Y-98145499D01*
X153893846Y-98157515D01*
X153898665Y-98169632D01*
X153903238Y-98181847D01*
X153907564Y-98194156D01*
X153911641Y-98206555D01*
X153915468Y-98219041D01*
X153919043Y-98231610D01*
X153922364Y-98244258D01*
X153922428Y-98244812D01*
X153922514Y-98245362D01*
X153922621Y-98245909D01*
X153922749Y-98246450D01*
X153922897Y-98246986D01*
X153923066Y-98247517D01*
X153923256Y-98248041D01*
X153923466Y-98248557D01*
X153932368Y-98264081D01*
X153940474Y-98279982D01*
X153947918Y-98296196D01*
X153954834Y-98312660D01*
X153967620Y-98346082D01*
X153979905Y-98379739D01*
X153992762Y-98413122D01*
X153999741Y-98429552D01*
X154007266Y-98445723D01*
X154015470Y-98461571D01*
X154024489Y-98477032D01*
X154034456Y-98492043D01*
X154045505Y-98506540D01*
X154046442Y-98507769D01*
X154047258Y-98509010D01*
X154047960Y-98510262D01*
X154048556Y-98511524D01*
X154049052Y-98512798D01*
X154049457Y-98514081D01*
X154049778Y-98515373D01*
X154050021Y-98516674D01*
X154050195Y-98517984D01*
X154050308Y-98519301D01*
X154050376Y-98521958D01*
X154050284Y-98524640D01*
X154050094Y-98527343D01*
X154049650Y-98532796D01*
X154049515Y-98535538D01*
X154049518Y-98538286D01*
X154049590Y-98539660D01*
X154049718Y-98541035D01*
X154049911Y-98542408D01*
X154050174Y-98543780D01*
X154050517Y-98545151D01*
X154050946Y-98546519D01*
X154051468Y-98547884D01*
X154052092Y-98549246D01*
X154054569Y-98554506D01*
X154056842Y-98559855D01*
X154058945Y-98565278D01*
X154060914Y-98570761D01*
X154064594Y-98581846D01*
X154068168Y-98592993D01*
X154071920Y-98604085D01*
X154073953Y-98609574D01*
X154076138Y-98615005D01*
X154078510Y-98620363D01*
X154081105Y-98625634D01*
X154083959Y-98630803D01*
X154087108Y-98635855D01*
X154087965Y-98636972D01*
X154088779Y-98638116D01*
X154089551Y-98639286D01*
X154090280Y-98640481D01*
X154090966Y-98641699D01*
X154091608Y-98642940D01*
X154092205Y-98644201D01*
X154092758Y-98645482D01*
X154093265Y-98646782D01*
X154093726Y-98648100D01*
X154094142Y-98649433D01*
X154094510Y-98650782D01*
X154094831Y-98652144D01*
X154095104Y-98653519D01*
X154095328Y-98654905D01*
X154095504Y-98656302D01*
X154095441Y-98662208D01*
X154095603Y-98668023D01*
X154096566Y-98679399D01*
X154098320Y-98690459D01*
X154100792Y-98701232D01*
X154103905Y-98711748D01*
X154107588Y-98722037D01*
X154111765Y-98732127D01*
X154116363Y-98742049D01*
X154121308Y-98751833D01*
X154126524Y-98761507D01*
X154137479Y-98780646D01*
X154148636Y-98799702D01*
X154159401Y-98818913D01*
X154160415Y-98820594D01*
X154161374Y-98822304D01*
X154162278Y-98824041D01*
X154163127Y-98825802D01*
X154163919Y-98827588D01*
X154164654Y-98829396D01*
X154165333Y-98831225D01*
X154165954Y-98833074D01*
X154166518Y-98834942D01*
X154167023Y-98836826D01*
X154167469Y-98838727D01*
X154167856Y-98840641D01*
X154168183Y-98842569D01*
X154168451Y-98844508D01*
X154168658Y-98846458D01*
X154168804Y-98848416D01*
X154169093Y-98860330D01*
X154170033Y-98872077D01*
X154171560Y-98883672D01*
X154173610Y-98895133D01*
X154176119Y-98906475D01*
X154179022Y-98917714D01*
X154182256Y-98928867D01*
X154185757Y-98939949D01*
X154193301Y-98961969D01*
X154201142Y-98983902D01*
X154208766Y-99005879D01*
X154212336Y-99016925D01*
X154215660Y-99028029D01*
X154251328Y-99147136D01*
X154259646Y-99177064D01*
X154267205Y-99207195D01*
X154273747Y-99237603D01*
X154276555Y-99252932D01*
X154279012Y-99268357D01*
X154279252Y-99270585D01*
X154279541Y-99272806D01*
X154279879Y-99275018D01*
X154280266Y-99277220D01*
X154280703Y-99279412D01*
X154281188Y-99281593D01*
X154281721Y-99283763D01*
X154282303Y-99285919D01*
X154282932Y-99288062D01*
X154283610Y-99290190D01*
X154284334Y-99292304D01*
X154285106Y-99294401D01*
X154285926Y-99296482D01*
X154286792Y-99298545D01*
X154287704Y-99300590D01*
X154288663Y-99302616D01*
X154294820Y-99314242D01*
X154300317Y-99326040D01*
X154305208Y-99337993D01*
X154309547Y-99350087D01*
X154313387Y-99362306D01*
X154316782Y-99374634D01*
X154319784Y-99387057D01*
X154322449Y-99399560D01*
X154326978Y-99424741D01*
X154330796Y-99450057D01*
X154338015Y-99500604D01*
X154343326Y-99536979D01*
X154348073Y-99573442D01*
X154356392Y-99646549D01*
X154371982Y-99792940D01*
X154372670Y-99797637D01*
X154373247Y-99802345D01*
X154373714Y-99807060D01*
X154374070Y-99811782D01*
X154374315Y-99816509D01*
X154374450Y-99821238D01*
X154374475Y-99825968D01*
X154374390Y-99830696D01*
X154374194Y-99835421D01*
X154373888Y-99840141D01*
X154373472Y-99844853D01*
X154372946Y-99849557D01*
X154372309Y-99854250D01*
X154371563Y-99858929D01*
X154370707Y-99863594D01*
X154369741Y-99868242D01*
X154369271Y-99870716D01*
X154368864Y-99873199D01*
X154368519Y-99875688D01*
X154368238Y-99878184D01*
X154368019Y-99880685D01*
X154367863Y-99883189D01*
X154367770Y-99885695D01*
X154367739Y-99888202D01*
X154367772Y-99890710D01*
X154367867Y-99893216D01*
X154368025Y-99895720D01*
X154368246Y-99898220D01*
X154368529Y-99900715D01*
X154368876Y-99903205D01*
X154369285Y-99905687D01*
X154369757Y-99908161D01*
X154371502Y-99919821D01*
X154372908Y-99931492D01*
X154374009Y-99943171D01*
X154374840Y-99954858D01*
X154375825Y-99978252D01*
X154376135Y-100001665D01*
X154375817Y-100048512D01*
X154375733Y-100071929D01*
X154376060Y-100095330D01*
X154376257Y-100109007D01*
X154376137Y-100122666D01*
X154375078Y-100149935D01*
X154373139Y-100177154D01*
X154370577Y-100204337D01*
X154364606Y-100258655D01*
X154361710Y-100285820D01*
X154359216Y-100313010D01*
X154355328Y-100355244D01*
X154350612Y-100397364D01*
X154345187Y-100439386D01*
X154339170Y-100481322D01*
X154325836Y-100564996D01*
X154311561Y-100648499D01*
X154307121Y-100669194D01*
X154302416Y-100689828D01*
X154297447Y-100710399D01*
X154292216Y-100730903D01*
X154286722Y-100751339D01*
X154280967Y-100771703D01*
X154274951Y-100791993D01*
X154268674Y-100812208D01*
X154262301Y-100834152D01*
X154255645Y-100856028D01*
X154242081Y-100899713D01*
X154235469Y-100921589D01*
X154229168Y-100943533D01*
X154223325Y-100965577D01*
X154218090Y-100987757D01*
X154214794Y-101001983D01*
X154211191Y-101016092D01*
X154203173Y-101043997D01*
X154194250Y-101071554D01*
X154184634Y-101098849D01*
X154143500Y-101207062D01*
X154135956Y-101227964D01*
X154128608Y-101248941D01*
X154121122Y-101269861D01*
X154117222Y-101280258D01*
X154113163Y-101290591D01*
X154101091Y-101319321D01*
X154088278Y-101347601D01*
X154074771Y-101375460D01*
X154060617Y-101402926D01*
X154045861Y-101430027D01*
X154030550Y-101456793D01*
X153998451Y-101509429D01*
X153964692Y-101561062D01*
X153929646Y-101611921D01*
X153893685Y-101662231D01*
X153857182Y-101712221D01*
X153848787Y-101725366D01*
X153840163Y-101738358D01*
X153831313Y-101751194D01*
X153822239Y-101763871D01*
X153812942Y-101776386D01*
X153803425Y-101788735D01*
X153793690Y-101800916D01*
X153783739Y-101812927D01*
X153687813Y-101912793D01*
X153663489Y-101937375D01*
X153638750Y-101961466D01*
X153613457Y-101984895D01*
X153600559Y-101996308D01*
X153587471Y-102007493D01*
X153540860Y-102046975D01*
X153517416Y-102066664D01*
X153493703Y-102086059D01*
X153469591Y-102104963D01*
X153444948Y-102123183D01*
X153432385Y-102131974D01*
X153419641Y-102140521D01*
X153406698Y-102148799D01*
X153393539Y-102156784D01*
X153390312Y-102158970D01*
X153387135Y-102161226D01*
X153384009Y-102163550D01*
X153380936Y-102165943D01*
X153377916Y-102168402D01*
X153374950Y-102170928D01*
X153372040Y-102173519D01*
X153369187Y-102176175D01*
X153335134Y-102203589D01*
X153300634Y-102230422D01*
X153265694Y-102256670D01*
X153230321Y-102282327D01*
X153194524Y-102307388D01*
X153158309Y-102331848D01*
X153121685Y-102355701D01*
X153084657Y-102378942D01*
X153076867Y-102383840D01*
X153068966Y-102388488D01*
X153060974Y-102392926D01*
X153052909Y-102397194D01*
X153036634Y-102405370D01*
X153020289Y-102413330D01*
X153004022Y-102421387D01*
X152987981Y-102429852D01*
X152980092Y-102434335D01*
X152972314Y-102439038D01*
X152964667Y-102443998D01*
X152957170Y-102449257D01*
X152953833Y-102451860D01*
X152950405Y-102454321D01*
X152946889Y-102456637D01*
X152943291Y-102458807D01*
X152939615Y-102460829D01*
X152935866Y-102462701D01*
X152932048Y-102464421D01*
X152928167Y-102465988D01*
X152924227Y-102467400D01*
X152920232Y-102468655D01*
X152916187Y-102469751D01*
X152912097Y-102470686D01*
X152907967Y-102471459D01*
X152903802Y-102472068D01*
X152899605Y-102472512D01*
X152895382Y-102472787D01*
X152893138Y-102473049D01*
X152890913Y-102473400D01*
X152888710Y-102473838D01*
X152886530Y-102474364D01*
X152884376Y-102474975D01*
X152882250Y-102475671D01*
X152880156Y-102476451D01*
X152878095Y-102477313D01*
X152876071Y-102478256D01*
X152874084Y-102479280D01*
X152872139Y-102480383D01*
X152870237Y-102481564D01*
X152868380Y-102482822D01*
X152866572Y-102484156D01*
X152864815Y-102485565D01*
X152863111Y-102487048D01*
X152856515Y-102491635D01*
X152849712Y-102495826D01*
X152842733Y-102499683D01*
X152835609Y-102503266D01*
X152828371Y-102506636D01*
X152821052Y-102509856D01*
X152806293Y-102516087D01*
X152791584Y-102522449D01*
X152784327Y-102525833D01*
X152777176Y-102529434D01*
X152770164Y-102533313D01*
X152763321Y-102537532D01*
X152756679Y-102542151D01*
X152750269Y-102547232D01*
X152748083Y-102548484D01*
X152745858Y-102549651D01*
X152743597Y-102550734D01*
X152741301Y-102551731D01*
X152738973Y-102552643D01*
X152736616Y-102553469D01*
X152734231Y-102554207D01*
X152731822Y-102554858D01*
X152729391Y-102555421D01*
X152726941Y-102555894D01*
X152724473Y-102556279D01*
X152721990Y-102556573D01*
X152719495Y-102556776D01*
X152716990Y-102556889D01*
X152714477Y-102556909D01*
X152711960Y-102556837D01*
X152709433Y-102556899D01*
X152706917Y-102557057D01*
X152704415Y-102557311D01*
X152701928Y-102557659D01*
X152699460Y-102558100D01*
X152697012Y-102558635D01*
X152694589Y-102559261D01*
X152692192Y-102559978D01*
X152689824Y-102560785D01*
X152687487Y-102561682D01*
X152685184Y-102562668D01*
X152682918Y-102563741D01*
X152680691Y-102564901D01*
X152678506Y-102566147D01*
X152676365Y-102567478D01*
X152674271Y-102568894D01*
X152664774Y-102575810D01*
X152654993Y-102582120D01*
X152644963Y-102587898D01*
X152634720Y-102593219D01*
X152624298Y-102598157D01*
X152613732Y-102602784D01*
X152592311Y-102611406D01*
X152570735Y-102619677D01*
X152549287Y-102628187D01*
X152538698Y-102632717D01*
X152528246Y-102637528D01*
X152517966Y-102642696D01*
X152507893Y-102648292D01*
X152506199Y-102649237D01*
X152504497Y-102650095D01*
X152501065Y-102651571D01*
X152497602Y-102652760D01*
X152494112Y-102653700D01*
X152490601Y-102654433D01*
X152487072Y-102654997D01*
X152483530Y-102655433D01*
X152479979Y-102655779D01*
X152472871Y-102656362D01*
X152465784Y-102657063D01*
X152462259Y-102657557D01*
X152458754Y-102658200D01*
X152455272Y-102659031D01*
X152451818Y-102660089D01*
X152283021Y-102716124D01*
X152279476Y-102717474D01*
X152276023Y-102719010D01*
X152272647Y-102720704D01*
X152269330Y-102722525D01*
X152266056Y-102724446D01*
X152262809Y-102726438D01*
X152256330Y-102730519D01*
X152249762Y-102734537D01*
X152246404Y-102736451D01*
X152242974Y-102738263D01*
X152239457Y-102739945D01*
X152235835Y-102741467D01*
X152232093Y-102742801D01*
X152228214Y-102743918D01*
X152226643Y-102744365D01*
X152225088Y-102744900D01*
X152223547Y-102745513D01*
X152222019Y-102746192D01*
X152218994Y-102747703D01*
X152216005Y-102749341D01*
X152210090Y-102752637D01*
X152207144Y-102754113D01*
X152205669Y-102754768D01*
X152204192Y-102755354D01*
X152202710Y-102755857D01*
X152201223Y-102756268D01*
X152199729Y-102756575D01*
X152198228Y-102756766D01*
X152196717Y-102756829D01*
X152195196Y-102756755D01*
X152193662Y-102756531D01*
X152192116Y-102756146D01*
X152190556Y-102755589D01*
X152188979Y-102754847D01*
X152187386Y-102753911D01*
X152185775Y-102752769D01*
X152184144Y-102751408D01*
X152182492Y-102749819D01*
X152180818Y-102747989D01*
X152179121Y-102745907D01*
X152178954Y-102745740D01*
X152178736Y-102745597D01*
X152178468Y-102745478D01*
X152178154Y-102745381D01*
X152177797Y-102745308D01*
X152177400Y-102745256D01*
X152176497Y-102745216D01*
X152175469Y-102745257D01*
X152174342Y-102745374D01*
X152173139Y-102745563D01*
X152171885Y-102745819D01*
X152170605Y-102746138D01*
X152169321Y-102746514D01*
X152168060Y-102746944D01*
X152166845Y-102747422D01*
X152165700Y-102747944D01*
X152164650Y-102748506D01*
X152163719Y-102749103D01*
X152163306Y-102749412D01*
X152162932Y-102749729D01*
X152157921Y-102753996D01*
X152152750Y-102757906D01*
X152147433Y-102761494D01*
X152141987Y-102764793D01*
X152136426Y-102767840D01*
X152130766Y-102770668D01*
X152125021Y-102773312D01*
X152119207Y-102775806D01*
X152107434Y-102780486D01*
X152095567Y-102784983D01*
X152083728Y-102789575D01*
X152077858Y-102791994D01*
X152072040Y-102794539D01*
X152061883Y-102799002D01*
X152051682Y-102803251D01*
X152031202Y-102811328D01*
X152010711Y-102819216D01*
X152000495Y-102823227D01*
X151990318Y-102827358D01*
X151962639Y-102837607D01*
X151934770Y-102847298D01*
X151906718Y-102856429D01*
X151878492Y-102864997D01*
X151850101Y-102873001D01*
X151821553Y-102880436D01*
X151792857Y-102887302D01*
X151764020Y-102893595D01*
X151759274Y-102894829D01*
X151757096Y-102895479D01*
X151755044Y-102896154D01*
X151753114Y-102896854D01*
X151751305Y-102897583D01*
X151749613Y-102898341D01*
X151748035Y-102899130D01*
X151746568Y-102899952D01*
X151745208Y-102900809D01*
X151743953Y-102901703D01*
X151742801Y-102902635D01*
X151741747Y-102903607D01*
X151740789Y-102904622D01*
X151739923Y-102905679D01*
X151739147Y-102906782D01*
X151738458Y-102907932D01*
X151737853Y-102909131D01*
X151737328Y-102910381D01*
X151736881Y-102911683D01*
X151736509Y-102913039D01*
X151736208Y-102914451D01*
X151735975Y-102915921D01*
X151735808Y-102917450D01*
X151735704Y-102919040D01*
X151735659Y-102920693D01*
X151735735Y-102924195D01*
X151736013Y-102927969D01*
X151736468Y-102932030D01*
X151743765Y-102992955D01*
X151750060Y-103053978D01*
X151755205Y-103115113D01*
X151757300Y-103145727D01*
X151759050Y-103176376D01*
X151762270Y-103239898D01*
X151764954Y-103303434D01*
X151765878Y-103335209D01*
X151766407Y-103366988D01*
X151766455Y-103398773D01*
X151765934Y-103430563D01*
X151765813Y-103451819D01*
X151766425Y-103473022D01*
X151767562Y-103494188D01*
X151769013Y-103515331D01*
X151772017Y-103557613D01*
X151773152Y-103578781D01*
X151773760Y-103599989D01*
X151775045Y-103658973D01*
X151777227Y-103717950D01*
X151780100Y-103776905D01*
X151783457Y-103835827D01*
X151798116Y-104067109D01*
X151813395Y-104298352D01*
X151813722Y-104299709D01*
X151814017Y-104301071D01*
X151814279Y-104302439D01*
X151814510Y-104303812D01*
X151814708Y-104305189D01*
X151814874Y-104306569D01*
X151815008Y-104307953D01*
X151815110Y-104309339D01*
X151815179Y-104310728D01*
X151815216Y-104312117D01*
X151815221Y-104313508D01*
X151815193Y-104314899D01*
X151815133Y-104316289D01*
X151815040Y-104317679D01*
X151814915Y-104319068D01*
X151814757Y-104320454D01*
X151813622Y-104323734D01*
X151812675Y-104326932D01*
X151811910Y-104330052D01*
X151811322Y-104333096D01*
X151810905Y-104336069D01*
X151810653Y-104338973D01*
X151810561Y-104341812D01*
X151810622Y-104344588D01*
X151810831Y-104347307D01*
X151811182Y-104349970D01*
X151811669Y-104352580D01*
X151812287Y-104355142D01*
X151813030Y-104357659D01*
X151813891Y-104360133D01*
X151814867Y-104362569D01*
X151815949Y-104364969D01*
X151818414Y-104369676D01*
X151821240Y-104374280D01*
X151824380Y-104378808D01*
X151827789Y-104383286D01*
X151831421Y-104387741D01*
X151835230Y-104392200D01*
X151843192Y-104401231D01*
X151854820Y-104414585D01*
X151865754Y-104428422D01*
X151875983Y-104442715D01*
X151885498Y-104457435D01*
X151894287Y-104472556D01*
X151902341Y-104488050D01*
X151909649Y-104503890D01*
X151916200Y-104520046D01*
X151921984Y-104536494D01*
X151926990Y-104553203D01*
X151931209Y-104570148D01*
X151934629Y-104587300D01*
X151937241Y-104604633D01*
X151939034Y-104622117D01*
X151939997Y-104639727D01*
X151940120Y-104657434D01*
X151939761Y-104692040D01*
X151939137Y-104709137D01*
X151937908Y-104726111D01*
X151936995Y-104734555D01*
X151935843Y-104742972D01*
X151934425Y-104751363D01*
X151932710Y-104759729D01*
X151930670Y-104768072D01*
X151928276Y-104776394D01*
X151925500Y-104784695D01*
X151922311Y-104792976D01*
X151919811Y-104799301D01*
X151917442Y-104805681D01*
X151912855Y-104818469D01*
X151908067Y-104831055D01*
X151905447Y-104837183D01*
X151902595Y-104843153D01*
X151899451Y-104848930D01*
X151895954Y-104854479D01*
X151892043Y-104859763D01*
X151889915Y-104862295D01*
X151887660Y-104864747D01*
X151885271Y-104867115D01*
X151882742Y-104869396D01*
X151880063Y-104871583D01*
X151877229Y-104873673D01*
X151874231Y-104875661D01*
X151871061Y-104877543D01*
X151867713Y-104879315D01*
X151864178Y-104880971D01*
X151863274Y-104881397D01*
X151862407Y-104881864D01*
X151861576Y-104882369D01*
X151860778Y-104882911D01*
X151860013Y-104883489D01*
X151859280Y-104884099D01*
X151858576Y-104884742D01*
X151857901Y-104885415D01*
X151857254Y-104886117D01*
X151856632Y-104886845D01*
X151856035Y-104887598D01*
X151855462Y-104888376D01*
X151854379Y-104889994D01*
X151853374Y-104891686D01*
X151852435Y-104893439D01*
X151851553Y-104895240D01*
X151850716Y-104897074D01*
X151849913Y-104898930D01*
X151846837Y-104906293D01*
X151846179Y-104908145D01*
X151845451Y-104909964D01*
X151844653Y-104911749D01*
X151843788Y-104913498D01*
X151842855Y-104915208D01*
X151841858Y-104916880D01*
X151840796Y-104918509D01*
X151839672Y-104920095D01*
X151838487Y-104921636D01*
X151837242Y-104923130D01*
X151835938Y-104924575D01*
X151834577Y-104925970D01*
X151833160Y-104927311D01*
X151831689Y-104928599D01*
X151830164Y-104929830D01*
X151828588Y-104931004D01*
X151817512Y-104938164D01*
X151806200Y-104944882D01*
X151794668Y-104951154D01*
X151782927Y-104956975D01*
X151770992Y-104962342D01*
X151758876Y-104967250D01*
X151746592Y-104971696D01*
X151734153Y-104975675D01*
X151721574Y-104979184D01*
X151708867Y-104982218D01*
X151696047Y-104984773D01*
X151683126Y-104986846D01*
X151670117Y-104988432D01*
X151657035Y-104989528D01*
X151643893Y-104990129D01*
X151630704Y-104990231D01*
X151627060Y-104989920D01*
X151623434Y-104989494D01*
X151619829Y-104988954D01*
X151616248Y-104988300D01*
X151612693Y-104987533D01*
X151609167Y-104986654D01*
X151605672Y-104985664D01*
X151602211Y-104984564D01*
X151598787Y-104983354D01*
X151595402Y-104982037D01*
X151592059Y-104980611D01*
X151588760Y-104979079D01*
X151585509Y-104977442D01*
X151582308Y-104975699D01*
X151579158Y-104973853D01*
X151576064Y-104971903D01*
X151550460Y-104955975D01*
X151524991Y-104939822D01*
X151499711Y-104923383D01*
X151474670Y-104906596D01*
X151471514Y-104904257D01*
X151468423Y-104901839D01*
X151465398Y-104899345D01*
X151462442Y-104896776D01*
X151459555Y-104894133D01*
X151456738Y-104891418D01*
X151453993Y-104888632D01*
X151451321Y-104885776D01*
X151448724Y-104882853D01*
X151446203Y-104879863D01*
X151443758Y-104876808D01*
X151441393Y-104873689D01*
X151439107Y-104870509D01*
X151436902Y-104867267D01*
X151434779Y-104863967D01*
X151432740Y-104860608D01*
X151426124Y-104850614D01*
X151419879Y-104840413D01*
X151414010Y-104830018D01*
X151408519Y-104819439D01*
X151403411Y-104808686D01*
X151398689Y-104797769D01*
X151394357Y-104786700D01*
X151390417Y-104775489D01*
X151386874Y-104764147D01*
X151383731Y-104752683D01*
X151380991Y-104741109D01*
X151378658Y-104729435D01*
X151376736Y-104717672D01*
X151375227Y-104705831D01*
X151374136Y-104693920D01*
X151373467Y-104681953D01*
X151373541Y-104676458D01*
X151373410Y-104670978D01*
X151373074Y-104665518D01*
X151372536Y-104660084D01*
X151371797Y-104654682D01*
X151370858Y-104649315D01*
X151369720Y-104643992D01*
X151368386Y-104638716D01*
X151366857Y-104633493D01*
X151365133Y-104628329D01*
X151363218Y-104623229D01*
X151361112Y-104618199D01*
X151358816Y-104613244D01*
X151356333Y-104608371D01*
X151353664Y-104603583D01*
X151350810Y-104598887D01*
X151350020Y-104597288D01*
X151349175Y-104595728D01*
X151348278Y-104594209D01*
X151347328Y-104592731D01*
X151346328Y-104591296D01*
X151345279Y-104589904D01*
X151344183Y-104588556D01*
X151343041Y-104587254D01*
X151341855Y-104585997D01*
X151340627Y-104584787D01*
X151339357Y-104583625D01*
X151338047Y-104582513D01*
X151336700Y-104581449D01*
X151335316Y-104580437D01*
X151333896Y-104579475D01*
X151332443Y-104578567D01*
X151330959Y-104577711D01*
X151329443Y-104576910D01*
X151327899Y-104576164D01*
X151326327Y-104575474D01*
X151324729Y-104574841D01*
X151323107Y-104574266D01*
X151321462Y-104573750D01*
X151319795Y-104573294D01*
X151318109Y-104572898D01*
X151316404Y-104572564D01*
X151314683Y-104572292D01*
X151312946Y-104572084D01*
X151311195Y-104571940D01*
X151309432Y-104571861D01*
X151307658Y-104571848D01*
X151305875Y-104571902D01*
X151296419Y-104571507D01*
X151286988Y-104570869D01*
X151277586Y-104569987D01*
X151268217Y-104568864D01*
X151258887Y-104567500D01*
X151249599Y-104565897D01*
X151240359Y-104564056D01*
X151231171Y-104561978D01*
X151222040Y-104559663D01*
X151212970Y-104557113D01*
X151203966Y-104554330D01*
X151195032Y-104551313D01*
X151186173Y-104548065D01*
X151177393Y-104544587D01*
X151168698Y-104540878D01*
X151160092Y-104536942D01*
X151145167Y-104530731D01*
X151130151Y-104524755D01*
X151115045Y-104519012D01*
X151099854Y-104513505D01*
X151084578Y-104508235D01*
X151069222Y-104503202D01*
X151053788Y-104498407D01*
X151038279Y-104493852D01*
X151028982Y-104490967D01*
X151019809Y-104487772D01*
X151010765Y-104484272D01*
X151001859Y-104480471D01*
X150993098Y-104476374D01*
X150984488Y-104471985D01*
X150976037Y-104467309D01*
X150967752Y-104462350D01*
X150959640Y-104457113D01*
X150951709Y-104451602D01*
X150943965Y-104445821D01*
X150936415Y-104439775D01*
X150929068Y-104433468D01*
X150921929Y-104426905D01*
X150915006Y-104420091D01*
X150908307Y-104413029D01*
X150906372Y-104411006D01*
X150904381Y-104409044D01*
X150902337Y-104407143D01*
X150900241Y-104405304D01*
X150898094Y-104403528D01*
X150895898Y-104401817D01*
X150893654Y-104400170D01*
X150891364Y-104398589D01*
X150889029Y-104397076D01*
X150886650Y-104395630D01*
X150884230Y-104394254D01*
X150881769Y-104392947D01*
X150879269Y-104391711D01*
X150876732Y-104390547D01*
X150874159Y-104389457D01*
X150871551Y-104388440D01*
X150817992Y-104367678D01*
X150764724Y-104346201D01*
X150711755Y-104324011D01*
X150659092Y-104301111D01*
X150606742Y-104277505D01*
X150554711Y-104253195D01*
X150503008Y-104228185D01*
X150451640Y-104202479D01*
X150444127Y-104199078D01*
X150436693Y-104195525D01*
X150429338Y-104191822D01*
X150422065Y-104187970D01*
X150414876Y-104183971D01*
X150407773Y-104179825D01*
X150400759Y-104175535D01*
X150393835Y-104171101D01*
X150387005Y-104166526D01*
X150380269Y-104161810D01*
X150373631Y-104156956D01*
X150367092Y-104151963D01*
X150360655Y-104146835D01*
X150354321Y-104141573D01*
X150348094Y-104136177D01*
X150341975Y-104130649D01*
X150338880Y-104128243D01*
X150335710Y-104125952D01*
X150332468Y-104123776D01*
X150329157Y-104121717D01*
X150325780Y-104119776D01*
X150322342Y-104117956D01*
X150318845Y-104116256D01*
X150315291Y-104114679D01*
X150311686Y-104113226D01*
X150308031Y-104111898D01*
X150304330Y-104110697D01*
X150300587Y-104109624D01*
X150296804Y-104108680D01*
X150292985Y-104107867D01*
X150289132Y-104107186D01*
X150285251Y-104106639D01*
X150274338Y-104104257D01*
X150263846Y-104101228D01*
X150253743Y-104097600D01*
X150243999Y-104093423D01*
X150234579Y-104088746D01*
X150225453Y-104083619D01*
X150216588Y-104078091D01*
X150207953Y-104072211D01*
X150199516Y-104066029D01*
X150191244Y-104059594D01*
X150175070Y-104046163D01*
X150143302Y-104018437D01*
X150140915Y-104016260D01*
X150138632Y-104013990D01*
X150134257Y-104009350D01*
X150132101Y-104007075D01*
X150129924Y-104004890D01*
X150127695Y-104002844D01*
X150125382Y-104000982D01*
X150124184Y-104000134D01*
X150122954Y-103999351D01*
X150121687Y-103998636D01*
X150120380Y-103997996D01*
X150119028Y-103997438D01*
X150117628Y-103996966D01*
X150116175Y-103996586D01*
X150114666Y-103996305D01*
X150113097Y-103996128D01*
X150111464Y-103996061D01*
X150109763Y-103996109D01*
X150107990Y-103996280D01*
X150106141Y-103996577D01*
X150104212Y-103997008D01*
X150102200Y-103997577D01*
X150100099Y-103998292D01*
X150098408Y-103998374D01*
X150096722Y-103998366D01*
X150095046Y-103998271D01*
X150093384Y-103998089D01*
X150091737Y-103997822D01*
X150090109Y-103997469D01*
X150088504Y-103997034D01*
X150086924Y-103996516D01*
X150085374Y-103995918D01*
X150083855Y-103995239D01*
X150082372Y-103994482D01*
X150080928Y-103993647D01*
X150079525Y-103992735D01*
X150078167Y-103991748D01*
X150076858Y-103990687D01*
X150075600Y-103989554D01*
X150066384Y-103982024D01*
X150056915Y-103974814D01*
X150047245Y-103967860D01*
X150037424Y-103961098D01*
X149997638Y-103934678D01*
X149987819Y-103927909D01*
X149978152Y-103920945D01*
X149968687Y-103913722D01*
X149959476Y-103906176D01*
X149950569Y-103898242D01*
X149942015Y-103889857D01*
X149933867Y-103880955D01*
X149926174Y-103871473D01*
X149924893Y-103870001D01*
X149923579Y-103868560D01*
X149922233Y-103867153D01*
X149920854Y-103865778D01*
X149919445Y-103864437D01*
X149918004Y-103863130D01*
X149916534Y-103861858D01*
X149915034Y-103860621D01*
X149913506Y-103859420D01*
X149911949Y-103858255D01*
X149910365Y-103857127D01*
X149908754Y-103856036D01*
X149907117Y-103854983D01*
X149905454Y-103853968D01*
X149903766Y-103852992D01*
X149902054Y-103852055D01*
X149877854Y-103836157D01*
X149853976Y-103819793D01*
X149830427Y-103802970D01*
X149807213Y-103785692D01*
X149784341Y-103767964D01*
X149761817Y-103749791D01*
X149739648Y-103731177D01*
X149717841Y-103712129D01*
X149710121Y-103705661D01*
X149702561Y-103699067D01*
X149695142Y-103692362D01*
X149687846Y-103685561D01*
X149673549Y-103671734D01*
X149659523Y-103657706D01*
X149631695Y-103629540D01*
X149617600Y-103615645D01*
X149603187Y-103602038D01*
X149601188Y-103600121D01*
X149599159Y-103598238D01*
X149597100Y-103596390D01*
X149595012Y-103594577D01*
X149592895Y-103592799D01*
X149590749Y-103591056D01*
X149588575Y-103589349D01*
X149586373Y-103587678D01*
X149584144Y-103586044D01*
X149581889Y-103584446D01*
X149579607Y-103582886D01*
X149577299Y-103581363D01*
X149574966Y-103579878D01*
X149572608Y-103578431D01*
X149570226Y-103577022D01*
X149567819Y-103575652D01*
X149559951Y-103571512D01*
X149552233Y-103567129D01*
X149544671Y-103562508D01*
X149537271Y-103557654D01*
X149530036Y-103552571D01*
X149522973Y-103547264D01*
X149516086Y-103541737D01*
X149509380Y-103535994D01*
X149502861Y-103530041D01*
X149496533Y-103523882D01*
X149490402Y-103517520D01*
X149484473Y-103510962D01*
X149478750Y-103504210D01*
X149473239Y-103497270D01*
X149467945Y-103490147D01*
X149462873Y-103482843D01*
X149390453Y-103404589D01*
X149385167Y-103396760D01*
X149379655Y-103389092D01*
X149373957Y-103381556D01*
X149368111Y-103374124D01*
X149344030Y-103344866D01*
X149332120Y-103330123D01*
X149326335Y-103322624D01*
X149320715Y-103315001D01*
X149315299Y-103307228D01*
X149310126Y-103299274D01*
X149305236Y-103291113D01*
X149300667Y-103282715D01*
X149299647Y-103280830D01*
X149298564Y-103279005D01*
X149297422Y-103277233D01*
X149296224Y-103275514D01*
X149293678Y-103272214D01*
X149290956Y-103269076D01*
X149288088Y-103266071D01*
X149285105Y-103263171D01*
X149282038Y-103260346D01*
X149278916Y-103257568D01*
X149272635Y-103252038D01*
X149269535Y-103249227D01*
X149266503Y-103246349D01*
X149263570Y-103243373D01*
X149260767Y-103240271D01*
X149258123Y-103237014D01*
X149256870Y-103235319D01*
X149255669Y-103233574D01*
X149238334Y-103207149D01*
X149221254Y-103180572D01*
X149187795Y-103126992D01*
X149155163Y-103072900D01*
X149123226Y-103018361D01*
X149099950Y-102977665D01*
X149077041Y-102936776D01*
X149054502Y-102895696D01*
X149032330Y-102854423D01*
X149019113Y-102829236D01*
X149006401Y-102803800D01*
X148994199Y-102778121D01*
X148982511Y-102752207D01*
X148971339Y-102726067D01*
X148960687Y-102699707D01*
X148950558Y-102673136D01*
X148940956Y-102646361D01*
X148929743Y-102614368D01*
X148918150Y-102582503D01*
X148894074Y-102519077D01*
X148844124Y-102392884D01*
X148826674Y-102347497D01*
X148810180Y-102301800D01*
X148794483Y-102255845D01*
X148779420Y-102209684D01*
X148750557Y-102116950D01*
X148722304Y-102024014D01*
X148718213Y-102010851D01*
X148716405Y-102005538D01*
X148714654Y-102001024D01*
X148713777Y-101999056D01*
X148712886Y-101997274D01*
X148711972Y-101995675D01*
X148711025Y-101994254D01*
X148710036Y-101993007D01*
X148708996Y-101991928D01*
X148707894Y-101991015D01*
X148706722Y-101990262D01*
X148705470Y-101989666D01*
X148704129Y-101989221D01*
X148702690Y-101988924D01*
X148701142Y-101988770D01*
X148699477Y-101988755D01*
X148697684Y-101988874D01*
X148695755Y-101989124D01*
X148693681Y-101989499D01*
X148689057Y-101990609D01*
X148683736Y-101992170D01*
X148677643Y-101994147D01*
X148670703Y-101996506D01*
X148641415Y-102005552D01*
X148611874Y-102013642D01*
X148582102Y-102020772D01*
X148552124Y-102026937D01*
X148521963Y-102032132D01*
X148491641Y-102036354D01*
X148461184Y-102039597D01*
X148430614Y-102041857D01*
X148402763Y-102043415D01*
X148374979Y-102044057D01*
X148347249Y-102044047D01*
X148319556Y-102043650D01*
X148264230Y-102042752D01*
X148236568Y-102042779D01*
X148208887Y-102043475D01*
X148205166Y-102043731D01*
X148201473Y-102043805D01*
X148197814Y-102043699D01*
X148194193Y-102043418D01*
X148190614Y-102042965D01*
X148187083Y-102042345D01*
X148183604Y-102041561D01*
X148180182Y-102040616D01*
X148176822Y-102039515D01*
X148173528Y-102038261D01*
X148170305Y-102036858D01*
X148167158Y-102035309D01*
X148164092Y-102033619D01*
X148161111Y-102031790D01*
X148158221Y-102029827D01*
X148155425Y-102027734D01*
X148152729Y-102025514D01*
X148150137Y-102023171D01*
X148147654Y-102020708D01*
X148145285Y-102018130D01*
X148143035Y-102015440D01*
X148140908Y-102012641D01*
X148138909Y-102009738D01*
X148137043Y-102006735D01*
X148135314Y-102003634D01*
X148133728Y-102000440D01*
X148132288Y-101997157D01*
X148131001Y-101993787D01*
X148129870Y-101990336D01*
X148128900Y-101986806D01*
X148128096Y-101983201D01*
X148127463Y-101979525D01*
X148125666Y-101971369D01*
X148123998Y-101963187D01*
X148122458Y-101954981D01*
X148121048Y-101946752D01*
X148119766Y-101938502D01*
X148118615Y-101930232D01*
X148117592Y-101921945D01*
X148116700Y-101913641D01*
X148104888Y-101784838D01*
X148099550Y-101720394D01*
X148095043Y-101655900D01*
X148094471Y-101648653D01*
X148093672Y-101641461D01*
X148092678Y-101634316D01*
X148091518Y-101627212D01*
X148088825Y-101613091D01*
X148085837Y-101599038D01*
X148082798Y-101584989D01*
X148079953Y-101570883D01*
X148077547Y-101556658D01*
X148076584Y-101549482D01*
X148075823Y-101542253D01*
X148071120Y-101491123D01*
X148067456Y-101439923D01*
X148064832Y-101388670D01*
X148063247Y-101337380D01*
X148062702Y-101286068D01*
X148063198Y-101234750D01*
X148064734Y-101183442D01*
X148067312Y-101132160D01*
X148069436Y-101099829D01*
X148070885Y-101067470D01*
X148071659Y-101035096D01*
X148071757Y-101002716D01*
X148071180Y-100970341D01*
X148069927Y-100937981D01*
X148068000Y-100905648D01*
X148065398Y-100873351D01*
X148065117Y-100862196D01*
X148064987Y-100851040D01*
X148064993Y-100847637D01*
X148252283Y-100847637D01*
X148252304Y-100856004D01*
X148252564Y-100864378D01*
X148253093Y-100872761D01*
X148253920Y-100881153D01*
X148255105Y-100895058D01*
X148256085Y-100908977D01*
X148256861Y-100922907D01*
X148257431Y-100936847D01*
X148257797Y-100950793D01*
X148257957Y-100964744D01*
X148257912Y-100978697D01*
X148257662Y-100992650D01*
X148257272Y-101034475D01*
X148256330Y-101076280D01*
X148253914Y-101159882D01*
X148253003Y-101201706D01*
X148252666Y-101243562D01*
X148253184Y-101285463D01*
X148254839Y-101327423D01*
X148258637Y-101384742D01*
X148263487Y-101441944D01*
X148275080Y-101556130D01*
X148287094Y-101670250D01*
X148292470Y-101727368D01*
X148297004Y-101784571D01*
X148297665Y-101792837D01*
X148298460Y-101800164D01*
X148299445Y-101806606D01*
X148300028Y-101809514D01*
X148300679Y-101812222D01*
X148301407Y-101814737D01*
X148302218Y-101817067D01*
X148303120Y-101819218D01*
X148304120Y-101821197D01*
X148305224Y-101823013D01*
X148306440Y-101824671D01*
X148307776Y-101826178D01*
X148309238Y-101827543D01*
X148310833Y-101828771D01*
X148312568Y-101829871D01*
X148314452Y-101830849D01*
X148316490Y-101831711D01*
X148318690Y-101832466D01*
X148321059Y-101833120D01*
X148323604Y-101833681D01*
X148326333Y-101834155D01*
X148332369Y-101834872D01*
X148339224Y-101835327D01*
X148346955Y-101835578D01*
X148355619Y-101835680D01*
X148370372Y-101835701D01*
X148393163Y-101835687D01*
X148419534Y-101833515D01*
X148446854Y-101831960D01*
X148474929Y-101830441D01*
X148503566Y-101828371D01*
X148518034Y-101826948D01*
X148532570Y-101825168D01*
X148547150Y-101822958D01*
X148561750Y-101820246D01*
X148576345Y-101816959D01*
X148590911Y-101813023D01*
X148605424Y-101808365D01*
X148619860Y-101802913D01*
X148632952Y-101797549D01*
X148638251Y-101795256D01*
X148642777Y-101793105D01*
X148644764Y-101792056D01*
X148646575Y-101791009D01*
X148648216Y-101789953D01*
X148649691Y-101788878D01*
X148651006Y-101787772D01*
X148652168Y-101786624D01*
X148653181Y-101785424D01*
X148654051Y-101784159D01*
X148654784Y-101782820D01*
X148655386Y-101781396D01*
X148655861Y-101779874D01*
X148656216Y-101778245D01*
X148656456Y-101776496D01*
X148656586Y-101774618D01*
X148656613Y-101772599D01*
X148656542Y-101770428D01*
X148656127Y-101765585D01*
X148655386Y-101760002D01*
X148654365Y-101753591D01*
X148653107Y-101746263D01*
X148637411Y-101661797D01*
X148620738Y-101577518D01*
X148604481Y-101493152D01*
X148596944Y-101450852D01*
X148590034Y-101408428D01*
X148581267Y-101353312D01*
X148573465Y-101298064D01*
X148566628Y-101242696D01*
X148560757Y-101187222D01*
X148555854Y-101131654D01*
X148551920Y-101076005D01*
X148548956Y-101020287D01*
X148546964Y-100964513D01*
X148546858Y-100950555D01*
X148746902Y-100950555D01*
X148747916Y-100996318D01*
X148750070Y-101042041D01*
X148753364Y-101087703D01*
X148757797Y-101133283D01*
X148763367Y-101178760D01*
X148769537Y-101228044D01*
X148776261Y-101277259D01*
X148791245Y-101375479D01*
X148808074Y-101473424D01*
X148826497Y-101571097D01*
X148828891Y-101582813D01*
X148831455Y-101594529D01*
X148836976Y-101618123D01*
X148848797Y-101667060D01*
X148849893Y-101666041D01*
X148850927Y-101665109D01*
X148852802Y-101663483D01*
X148855761Y-101661013D01*
X148856830Y-101660070D01*
X148857258Y-101659650D01*
X148857614Y-101659256D01*
X148857897Y-101658882D01*
X148858106Y-101658522D01*
X148858241Y-101658170D01*
X148858280Y-101657995D01*
X148858300Y-101657820D01*
X148858530Y-101654494D01*
X148858694Y-101651165D01*
X148858792Y-101647834D01*
X148858824Y-101644502D01*
X148858789Y-101641170D01*
X148858689Y-101637840D01*
X148858523Y-101634511D01*
X148858291Y-101631185D01*
X148856279Y-101607287D01*
X148855025Y-101583448D01*
X148854484Y-101559665D01*
X148854612Y-101535937D01*
X148855363Y-101512261D01*
X148856692Y-101488636D01*
X148860905Y-101441530D01*
X148866891Y-101394603D01*
X148874290Y-101347839D01*
X148882743Y-101301223D01*
X148891889Y-101254738D01*
X148900992Y-101218405D01*
X148911369Y-101182452D01*
X148923006Y-101146911D01*
X148935891Y-101111816D01*
X148950011Y-101077199D01*
X148965354Y-101043094D01*
X148981906Y-101009533D01*
X148999655Y-100976549D01*
X149002524Y-100971368D01*
X149005600Y-100966331D01*
X149008853Y-100961416D01*
X149012250Y-100956605D01*
X149015761Y-100951880D01*
X149019355Y-100947221D01*
X149026666Y-100938023D01*
X149033934Y-100928861D01*
X149037475Y-100924244D01*
X149040911Y-100919579D01*
X149044212Y-100914846D01*
X149047347Y-100910026D01*
X149050285Y-100905100D01*
X149052994Y-100900048D01*
X149061951Y-100884619D01*
X149071279Y-100869421D01*
X149080974Y-100854460D01*
X149091030Y-100839742D01*
X149101443Y-100825276D01*
X149112208Y-100811066D01*
X149123321Y-100797119D01*
X149134778Y-100783443D01*
X149139763Y-100776610D01*
X149145132Y-100770152D01*
X149150863Y-100764081D01*
X149156934Y-100758408D01*
X149163323Y-100753144D01*
X149170009Y-100748300D01*
X149176969Y-100743888D01*
X149184183Y-100739917D01*
X149191628Y-100736399D01*
X149199283Y-100733346D01*
X149207127Y-100730768D01*
X149215136Y-100728677D01*
X149223291Y-100727084D01*
X149231568Y-100725998D01*
X149239947Y-100725433D01*
X149248405Y-100725399D01*
X149254787Y-100725792D01*
X149261094Y-100726571D01*
X149267314Y-100727722D01*
X149273436Y-100729232D01*
X149279446Y-100731087D01*
X149285332Y-100733275D01*
X149291083Y-100735783D01*
X149296686Y-100738596D01*
X149302127Y-100741702D01*
X149307396Y-100745087D01*
X149312480Y-100748739D01*
X149317367Y-100752644D01*
X149322043Y-100756788D01*
X149326497Y-100761159D01*
X149330717Y-100765743D01*
X149334690Y-100770527D01*
X149338403Y-100775498D01*
X149341846Y-100780643D01*
X149345004Y-100785948D01*
X149347866Y-100791400D01*
X149350420Y-100796986D01*
X149352653Y-100802692D01*
X149354553Y-100808506D01*
X149356108Y-100814413D01*
X149357305Y-100820402D01*
X149358131Y-100826458D01*
X149358575Y-100832569D01*
X149358625Y-100838721D01*
X149358267Y-100844901D01*
X149357491Y-100851095D01*
X149356282Y-100857291D01*
X149354629Y-100863475D01*
X149352477Y-100870121D01*
X149350174Y-100876710D01*
X149347721Y-100883239D01*
X149345119Y-100889704D01*
X149342370Y-100896105D01*
X149339475Y-100902438D01*
X149336435Y-100908700D01*
X149333251Y-100914890D01*
X149329926Y-100921005D01*
X149326460Y-100927042D01*
X149322854Y-100932999D01*
X149319110Y-100938873D01*
X149315230Y-100944662D01*
X149311213Y-100950364D01*
X149307063Y-100955976D01*
X149302779Y-100961495D01*
X149290043Y-100977012D01*
X149277842Y-100992932D01*
X149266186Y-101009241D01*
X149255083Y-101025925D01*
X149244544Y-101042970D01*
X149234576Y-101060363D01*
X149225190Y-101078088D01*
X149216393Y-101096132D01*
X149206023Y-101119021D01*
X149196171Y-101142128D01*
X149186840Y-101165444D01*
X149178034Y-101188959D01*
X149169756Y-101212666D01*
X149162008Y-101236554D01*
X149154795Y-101260616D01*
X149148119Y-101284842D01*
X149145015Y-101298345D01*
X149141535Y-101311739D01*
X149139589Y-101318362D01*
X149137472Y-101324917D01*
X149135156Y-101331391D01*
X149132617Y-101337771D01*
X149129828Y-101344043D01*
X149126763Y-101350193D01*
X149123396Y-101356208D01*
X149119702Y-101362075D01*
X149115653Y-101367781D01*
X149111225Y-101373311D01*
X149106391Y-101378652D01*
X149101125Y-101383791D01*
X149100088Y-101385122D01*
X149099108Y-101386489D01*
X149098184Y-101387890D01*
X149097317Y-101389323D01*
X149096507Y-101390787D01*
X149095757Y-101392280D01*
X149095066Y-101393800D01*
X149094435Y-101395345D01*
X149093864Y-101396913D01*
X149093355Y-101398503D01*
X149092908Y-101400113D01*
X149092524Y-101401741D01*
X149092203Y-101403385D01*
X149091946Y-101405044D01*
X149091755Y-101406715D01*
X149091628Y-101408397D01*
X149088671Y-101428261D01*
X149085323Y-101448075D01*
X149078488Y-101487688D01*
X149075514Y-101507552D01*
X149073176Y-101527497D01*
X149072327Y-101537511D01*
X149071733Y-101547557D01*
X149071427Y-101557641D01*
X149071440Y-101567765D01*
X149073398Y-101598895D01*
X149076139Y-101629952D01*
X149079659Y-101660919D01*
X149083958Y-101691784D01*
X149089032Y-101722530D01*
X149094880Y-101753143D01*
X149101499Y-101783609D01*
X149108887Y-101813913D01*
X149109299Y-101815471D01*
X149109816Y-101817011D01*
X149110402Y-101818535D01*
X149111023Y-101820042D01*
X149112229Y-101823015D01*
X149112743Y-101824481D01*
X149113152Y-101825936D01*
X149113306Y-101826660D01*
X149113421Y-101827381D01*
X149113491Y-101828099D01*
X149113514Y-101828815D01*
X149113483Y-101829529D01*
X149113396Y-101830241D01*
X149113247Y-101830951D01*
X149113033Y-101831660D01*
X149112749Y-101832366D01*
X149112390Y-101833072D01*
X149111952Y-101833775D01*
X149111431Y-101834478D01*
X149110822Y-101835179D01*
X149110121Y-101835880D01*
X149109324Y-101836579D01*
X149108426Y-101837278D01*
X149104952Y-101840526D01*
X149101583Y-101843874D01*
X149098322Y-101847317D01*
X149095171Y-101850854D01*
X149092132Y-101854481D01*
X149089205Y-101858196D01*
X149086394Y-101861996D01*
X149083699Y-101865879D01*
X149081124Y-101869841D01*
X149078668Y-101873881D01*
X149076335Y-101877995D01*
X149074127Y-101882180D01*
X149072044Y-101886435D01*
X149070089Y-101890755D01*
X149068264Y-101895139D01*
X149066570Y-101899584D01*
X149066105Y-101900938D01*
X149065588Y-101902262D01*
X149065021Y-101903556D01*
X149064404Y-101904819D01*
X149063740Y-101906050D01*
X149063030Y-101907247D01*
X149062275Y-101908410D01*
X149061477Y-101909539D01*
X149060636Y-101910631D01*
X149059755Y-101911685D01*
X149058834Y-101912702D01*
X149057875Y-101913680D01*
X149056880Y-101914618D01*
X149055849Y-101915515D01*
X149054785Y-101916370D01*
X149053687Y-101917181D01*
X149052559Y-101917949D01*
X149051401Y-101918673D01*
X149050214Y-101919350D01*
X149049001Y-101919980D01*
X149047762Y-101920563D01*
X149046498Y-101921097D01*
X149045211Y-101921581D01*
X149043903Y-101922015D01*
X149042575Y-101922396D01*
X149041228Y-101922726D01*
X149039863Y-101923001D01*
X149038483Y-101923222D01*
X149037087Y-101923387D01*
X149035679Y-101923496D01*
X149034258Y-101923547D01*
X149032827Y-101923540D01*
X149031460Y-101923245D01*
X149030086Y-101923013D01*
X149028707Y-101922844D01*
X149027325Y-101922737D01*
X149025943Y-101922693D01*
X149024562Y-101922711D01*
X149023185Y-101922790D01*
X149021813Y-101922931D01*
X149020449Y-101923133D01*
X149019095Y-101923396D01*
X149017753Y-101923720D01*
X149016424Y-101924105D01*
X149015112Y-101924549D01*
X149013818Y-101925053D01*
X149012543Y-101925617D01*
X149011292Y-101926241D01*
X149008972Y-101927892D01*
X149006664Y-101929384D01*
X149004366Y-101930722D01*
X149002078Y-101931908D01*
X148999801Y-101932948D01*
X148997534Y-101933846D01*
X148995276Y-101934606D01*
X148993028Y-101935232D01*
X148990789Y-101935729D01*
X148988559Y-101936101D01*
X148986338Y-101936352D01*
X148984125Y-101936486D01*
X148981919Y-101936508D01*
X148979722Y-101936421D01*
X148977533Y-101936231D01*
X148975350Y-101935941D01*
X148971006Y-101935079D01*
X148966689Y-101933870D01*
X148962395Y-101932348D01*
X148958123Y-101930547D01*
X148953870Y-101928500D01*
X148949635Y-101926243D01*
X148945416Y-101923808D01*
X148941210Y-101921231D01*
X148939831Y-101920321D01*
X148938459Y-101919350D01*
X148935718Y-101917323D01*
X148934341Y-101916320D01*
X148932953Y-101915360D01*
X148931551Y-101914469D01*
X148930130Y-101913673D01*
X148929411Y-101913319D01*
X148928685Y-101912998D01*
X148927953Y-101912715D01*
X148927213Y-101912471D01*
X148926465Y-101912271D01*
X148925709Y-101912118D01*
X148924943Y-101912015D01*
X148924168Y-101911965D01*
X148923383Y-101911972D01*
X148922587Y-101912038D01*
X148921780Y-101912168D01*
X148920961Y-101912365D01*
X148920130Y-101912631D01*
X148919286Y-101912970D01*
X148918429Y-101913385D01*
X148917558Y-101913880D01*
X148916627Y-101914484D01*
X148915760Y-101915119D01*
X148914956Y-101915782D01*
X148914212Y-101916474D01*
X148913526Y-101917192D01*
X148912895Y-101917935D01*
X148912319Y-101918703D01*
X148911794Y-101919493D01*
X148911318Y-101920306D01*
X148910889Y-101921139D01*
X148910506Y-101921991D01*
X148910165Y-101922861D01*
X148909864Y-101923748D01*
X148909602Y-101924650D01*
X148909377Y-101925567D01*
X148909185Y-101926496D01*
X148908896Y-101928390D01*
X148908717Y-101930320D01*
X148908630Y-101932279D01*
X148908619Y-101934254D01*
X148908666Y-101936237D01*
X148908754Y-101938218D01*
X148908982Y-101942133D01*
X148908988Y-101943528D01*
X148909027Y-101944921D01*
X148909102Y-101946312D01*
X148909210Y-101947699D01*
X148909352Y-101949082D01*
X148909529Y-101950461D01*
X148909739Y-101951834D01*
X148909983Y-101953202D01*
X148910260Y-101954563D01*
X148910571Y-101955918D01*
X148910915Y-101957264D01*
X148911293Y-101958603D01*
X148911703Y-101959932D01*
X148912147Y-101961252D01*
X148912623Y-101962562D01*
X148913132Y-101963861D01*
X148917956Y-101973930D01*
X148922334Y-101984140D01*
X148926321Y-101994472D01*
X148929968Y-102004910D01*
X148933329Y-102015437D01*
X148936458Y-102026037D01*
X148942227Y-102047387D01*
X148953298Y-102090214D01*
X148959447Y-102111422D01*
X148962861Y-102121915D01*
X148966571Y-102132313D01*
X148981584Y-102173672D01*
X148995919Y-102215259D01*
X149023662Y-102298755D01*
X149037621Y-102340483D01*
X149052007Y-102382076D01*
X149067095Y-102423444D01*
X149083161Y-102464496D01*
X149111063Y-102528469D01*
X149139903Y-102592013D01*
X149169675Y-102655116D01*
X149200375Y-102717769D01*
X149231998Y-102779961D01*
X149264538Y-102841683D01*
X149297990Y-102902923D01*
X149332350Y-102963673D01*
X149342171Y-102980855D01*
X149352428Y-102997752D01*
X149363062Y-103014406D01*
X149374009Y-103030857D01*
X149396603Y-103063307D01*
X149419719Y-103095425D01*
X149442867Y-103127530D01*
X149465559Y-103159945D01*
X149476580Y-103176369D01*
X149487303Y-103192990D01*
X149497666Y-103209849D01*
X149507610Y-103226985D01*
X149508966Y-103228754D01*
X149510359Y-103230491D01*
X149511789Y-103232198D01*
X149513255Y-103233874D01*
X149514758Y-103235517D01*
X149516295Y-103237128D01*
X149517867Y-103238706D01*
X149519473Y-103240250D01*
X149527626Y-103249819D01*
X149536016Y-103259146D01*
X149544613Y-103268260D01*
X149553391Y-103277191D01*
X149571375Y-103294614D01*
X149589746Y-103311646D01*
X149626754Y-103345454D01*
X149644945Y-103362689D01*
X149653864Y-103371491D01*
X149662629Y-103380453D01*
X149675918Y-103394046D01*
X149689440Y-103407377D01*
X149717106Y-103433349D01*
X149745462Y-103458548D01*
X149774347Y-103483154D01*
X149891901Y-103579258D01*
X149921760Y-103603562D01*
X149951937Y-103627443D01*
X149982407Y-103650939D01*
X150013143Y-103674088D01*
X150044120Y-103696930D01*
X150075313Y-103719502D01*
X150138243Y-103763991D01*
X150155027Y-103775394D01*
X150172043Y-103786676D01*
X150189019Y-103798153D01*
X150197407Y-103804062D01*
X150205685Y-103810138D01*
X150213817Y-103816421D01*
X150221771Y-103822949D01*
X150229512Y-103829763D01*
X150237007Y-103836901D01*
X150244221Y-103844403D01*
X150251121Y-103852308D01*
X150257674Y-103860656D01*
X150263845Y-103869486D01*
X150265087Y-103871404D01*
X150266384Y-103873275D01*
X150269135Y-103876872D01*
X150272089Y-103880270D01*
X150275233Y-103883463D01*
X150278556Y-103886445D01*
X150282047Y-103889210D01*
X150285695Y-103891751D01*
X150289489Y-103894061D01*
X150293417Y-103896134D01*
X150297469Y-103897965D01*
X150301632Y-103899546D01*
X150305896Y-103900871D01*
X150310250Y-103901934D01*
X150314681Y-103902728D01*
X150319180Y-103903248D01*
X150321451Y-103903402D01*
X150323735Y-103903486D01*
X150327146Y-103903698D01*
X150330525Y-103904089D01*
X150333865Y-103904656D01*
X150337158Y-103905396D01*
X150340400Y-103906305D01*
X150343584Y-103907380D01*
X150346702Y-103908619D01*
X150349750Y-103910018D01*
X150352721Y-103911574D01*
X150355609Y-103913284D01*
X150358406Y-103915146D01*
X150361108Y-103917155D01*
X150363707Y-103919309D01*
X150366197Y-103921605D01*
X150368573Y-103924039D01*
X150370827Y-103926609D01*
X150377059Y-103933096D01*
X150383541Y-103939122D01*
X150390255Y-103944725D01*
X150397177Y-103949944D01*
X150404288Y-103954819D01*
X150411567Y-103959387D01*
X150418992Y-103963688D01*
X150426543Y-103967760D01*
X150434198Y-103971641D01*
X150441937Y-103975371D01*
X150457583Y-103982530D01*
X150473313Y-103989547D01*
X150488958Y-103996731D01*
X150577836Y-104038648D01*
X150622417Y-104059295D01*
X150667163Y-104079575D01*
X150789404Y-104134429D01*
X150850872Y-104161003D01*
X150881800Y-104173790D01*
X150912898Y-104186135D01*
X150959913Y-104203776D01*
X151007211Y-104220775D01*
X151054561Y-104237692D01*
X151101736Y-104255090D01*
X151106988Y-104256980D01*
X151112306Y-104258651D01*
X151117683Y-104260102D01*
X151123113Y-104261331D01*
X151128588Y-104262337D01*
X151134102Y-104263119D01*
X151139648Y-104263675D01*
X151145219Y-104264004D01*
X151148956Y-104263902D01*
X151152646Y-104264096D01*
X151156276Y-104264576D01*
X151159830Y-104265334D01*
X151163296Y-104266361D01*
X151166658Y-104267647D01*
X151169903Y-104269185D01*
X151173016Y-104270965D01*
X151175984Y-104272978D01*
X151178792Y-104275216D01*
X151181426Y-104277670D01*
X151183872Y-104280331D01*
X151186116Y-104283191D01*
X151188144Y-104286239D01*
X151189941Y-104289468D01*
X151191493Y-104292869D01*
X151192807Y-104296015D01*
X151194212Y-104299017D01*
X151195706Y-104301881D01*
X151197285Y-104304609D01*
X151198948Y-104307207D01*
X151200692Y-104309678D01*
X151202512Y-104312028D01*
X151204408Y-104314261D01*
X151206376Y-104316380D01*
X151208414Y-104318390D01*
X151210518Y-104320296D01*
X151212686Y-104322102D01*
X151214915Y-104323812D01*
X151217202Y-104325430D01*
X151219545Y-104326961D01*
X151221941Y-104328409D01*
X151224387Y-104329779D01*
X151226881Y-104331074D01*
X151231998Y-104333459D01*
X151237272Y-104335599D01*
X151242680Y-104337529D01*
X151248200Y-104339283D01*
X151253810Y-104340895D01*
X151265212Y-104343835D01*
X151276072Y-104346286D01*
X151286872Y-104348971D01*
X151297609Y-104351886D01*
X151308280Y-104355032D01*
X151318881Y-104358406D01*
X151329407Y-104362008D01*
X151339857Y-104365837D01*
X151350224Y-104369892D01*
X151358389Y-104373294D01*
X151366559Y-104376352D01*
X151374719Y-104379007D01*
X151382851Y-104381197D01*
X151390939Y-104382861D01*
X151398965Y-104383940D01*
X151406912Y-104384372D01*
X151410851Y-104384326D01*
X151414764Y-104384096D01*
X151418649Y-104383674D01*
X151422504Y-104383052D01*
X151426326Y-104382223D01*
X151430114Y-104381179D01*
X151433866Y-104379912D01*
X151437578Y-104378416D01*
X151441250Y-104376681D01*
X151444879Y-104374702D01*
X151448463Y-104372469D01*
X151451999Y-104369977D01*
X151455487Y-104367216D01*
X151458923Y-104364179D01*
X151462305Y-104360860D01*
X151465632Y-104357249D01*
X151468901Y-104353340D01*
X151472110Y-104349125D01*
X151473637Y-104347495D01*
X151475199Y-104345899D01*
X151476796Y-104344339D01*
X151478426Y-104342814D01*
X151480089Y-104341326D01*
X151481785Y-104339874D01*
X151483513Y-104338459D01*
X151485273Y-104337082D01*
X151490156Y-104332372D01*
X151495267Y-104327967D01*
X151500592Y-104323875D01*
X151506115Y-104320101D01*
X151511823Y-104316649D01*
X151517700Y-104313525D01*
X151523732Y-104310734D01*
X151529905Y-104308282D01*
X151536203Y-104306174D01*
X151542613Y-104304416D01*
X151549119Y-104303012D01*
X151555707Y-104301968D01*
X151562363Y-104301290D01*
X151569071Y-104300983D01*
X151575818Y-104301051D01*
X151582588Y-104301501D01*
X151588637Y-104301955D01*
X151593977Y-104302227D01*
X151598650Y-104302284D01*
X151600748Y-104302222D01*
X151602694Y-104302094D01*
X151604492Y-104301896D01*
X151606149Y-104301623D01*
X151607669Y-104301273D01*
X151609057Y-104300840D01*
X151610317Y-104300321D01*
X151611456Y-104299711D01*
X151612478Y-104299007D01*
X151613387Y-104298204D01*
X151614190Y-104297298D01*
X151614891Y-104296285D01*
X151615495Y-104295161D01*
X151616007Y-104293922D01*
X151616432Y-104292564D01*
X151616775Y-104291082D01*
X151617042Y-104289474D01*
X151617236Y-104287733D01*
X151617430Y-104283842D01*
X151617396Y-104279376D01*
X151617174Y-104274301D01*
X151616806Y-104268586D01*
X151608885Y-104150457D01*
X151602087Y-104032271D01*
X151596746Y-103914011D01*
X151593196Y-103795658D01*
X151590276Y-103696314D01*
X151586510Y-103596997D01*
X151582982Y-103497664D01*
X151580778Y-103398276D01*
X151579822Y-103357606D01*
X151578074Y-103316966D01*
X151573119Y-103235732D01*
X151567754Y-103154491D01*
X151565491Y-103113842D01*
X151563816Y-103073161D01*
X151563513Y-103057033D01*
X151563437Y-103040757D01*
X151563293Y-103024422D01*
X151562788Y-103008115D01*
X151562309Y-103000000D01*
X151561629Y-102991925D01*
X151560712Y-102983902D01*
X151559521Y-102975942D01*
X151558019Y-102968056D01*
X151556170Y-102960254D01*
X151553937Y-102952548D01*
X151551284Y-102944950D01*
X151545354Y-102927559D01*
X151542972Y-102919033D01*
X151540970Y-102910617D01*
X151539340Y-102902307D01*
X151538077Y-102894103D01*
X151537172Y-102886002D01*
X151536620Y-102878001D01*
X151536414Y-102870098D01*
X151536546Y-102862292D01*
X151537801Y-102846957D01*
X151540330Y-102831978D01*
X151544078Y-102817337D01*
X151548993Y-102803015D01*
X151555019Y-102788995D01*
X151562102Y-102775257D01*
X151570189Y-102761784D01*
X151579224Y-102748557D01*
X151589155Y-102735559D01*
X151599925Y-102722769D01*
X151611482Y-102710172D01*
X151618911Y-102702078D01*
X151620825Y-102700030D01*
X151622783Y-102698015D01*
X151624793Y-102696053D01*
X151626866Y-102694166D01*
X151629013Y-102692373D01*
X151631243Y-102690696D01*
X151633567Y-102689156D01*
X151634767Y-102688444D01*
X151635994Y-102687774D01*
X151637250Y-102687149D01*
X151638535Y-102686571D01*
X151639851Y-102686043D01*
X151641200Y-102685567D01*
X151642582Y-102685147D01*
X151643998Y-102684784D01*
X151645451Y-102684482D01*
X151646941Y-102684242D01*
X151653026Y-102683279D01*
X151659048Y-102682090D01*
X151665014Y-102680704D01*
X151670932Y-102679149D01*
X151682657Y-102675653D01*
X151694285Y-102671833D01*
X151705879Y-102667923D01*
X151717502Y-102664157D01*
X151723343Y-102662400D01*
X151729216Y-102660766D01*
X151735126Y-102659284D01*
X151741084Y-102657984D01*
X151784763Y-102648430D01*
X151828087Y-102637593D01*
X151871146Y-102625799D01*
X151914030Y-102613376D01*
X151999635Y-102587950D01*
X152042536Y-102575601D01*
X152085623Y-102563931D01*
X152114728Y-102556114D01*
X152143694Y-102547852D01*
X152172539Y-102539200D01*
X152201276Y-102530210D01*
X152258490Y-102511428D01*
X152315460Y-102491933D01*
X152459141Y-102443121D01*
X152530730Y-102417957D01*
X152566322Y-102404776D01*
X152601727Y-102391037D01*
X152640984Y-102374926D01*
X152680003Y-102358266D01*
X152718780Y-102341060D01*
X152757309Y-102323310D01*
X152795584Y-102305018D01*
X152833599Y-102286188D01*
X152871349Y-102266822D01*
X152908828Y-102246924D01*
X152937437Y-102230739D01*
X152965782Y-102214109D01*
X152993857Y-102197037D01*
X153021657Y-102179525D01*
X153049178Y-102161577D01*
X153076414Y-102143197D01*
X153103360Y-102124387D01*
X153130012Y-102105150D01*
X153164409Y-102080429D01*
X153198482Y-102055271D01*
X153232227Y-102029679D01*
X153265639Y-102003658D01*
X153298714Y-101977209D01*
X153331448Y-101950337D01*
X153363837Y-101923045D01*
X153395877Y-101895336D01*
X153422241Y-101871960D01*
X153448343Y-101848330D01*
X153474198Y-101824463D01*
X153499826Y-101800374D01*
X153550472Y-101751592D01*
X153600424Y-101702108D01*
X153612038Y-101690805D01*
X153623326Y-101679190D01*
X153634282Y-101667269D01*
X153644899Y-101655050D01*
X153655173Y-101642540D01*
X153665095Y-101629746D01*
X153674662Y-101616676D01*
X153683865Y-101603337D01*
X153692857Y-101589206D01*
X153701980Y-101575155D01*
X153720557Y-101547262D01*
X153739472Y-101519590D01*
X153758597Y-101492068D01*
X153779058Y-101462347D01*
X153798909Y-101432245D01*
X153818145Y-101401772D01*
X153836763Y-101370938D01*
X153854757Y-101339752D01*
X153872123Y-101308224D01*
X153888855Y-101276363D01*
X153904950Y-101244179D01*
X153920402Y-101211682D01*
X153935208Y-101178881D01*
X153949361Y-101145787D01*
X153962858Y-101112407D01*
X153975694Y-101078753D01*
X153987864Y-101044833D01*
X153999363Y-101010658D01*
X154010187Y-100976236D01*
X154082317Y-100732113D01*
X154092118Y-100697750D01*
X154101271Y-100663218D01*
X154109776Y-100628527D01*
X154117630Y-100593687D01*
X154124832Y-100558705D01*
X154131378Y-100523593D01*
X154137268Y-100488357D01*
X154142499Y-100453008D01*
X154150886Y-100390461D01*
X154158163Y-100327789D01*
X154164329Y-100265008D01*
X154169383Y-100202133D01*
X154173323Y-100139178D01*
X154176148Y-100076158D01*
X154177858Y-100013089D01*
X154178451Y-99949984D01*
X154178247Y-99919241D01*
X154177671Y-99888533D01*
X154176732Y-99857861D01*
X154175443Y-99827225D01*
X154173814Y-99796626D01*
X154171855Y-99766063D01*
X154166992Y-99705047D01*
X154165781Y-99689523D01*
X154164829Y-99673959D01*
X154163113Y-99642793D01*
X154162051Y-99627233D01*
X154160655Y-99611716D01*
X154158776Y-99596263D01*
X154157610Y-99588567D01*
X154156267Y-99580895D01*
X154130192Y-99434227D01*
X154123448Y-99397599D01*
X154116295Y-99361045D01*
X154108575Y-99324593D01*
X154100128Y-99288272D01*
X154075383Y-99186333D01*
X154068834Y-99160954D01*
X154061943Y-99135678D01*
X154054609Y-99110535D01*
X154046733Y-99085555D01*
X154030981Y-99038429D01*
X154014749Y-98991480D01*
X153998017Y-98944714D01*
X153980768Y-98898138D01*
X153962984Y-98851757D01*
X153944646Y-98805578D01*
X153925735Y-98759608D01*
X153906234Y-98713851D01*
X153862287Y-98613634D01*
X153817332Y-98513989D01*
X153770966Y-98415098D01*
X153722788Y-98317141D01*
X153672397Y-98220298D01*
X153619391Y-98124751D01*
X153563369Y-98030679D01*
X153503930Y-97938264D01*
X153466956Y-97884792D01*
X153428653Y-97832524D01*
X153389213Y-97781273D01*
X153348830Y-97730854D01*
X153307697Y-97681081D01*
X153266006Y-97631769D01*
X153181723Y-97533785D01*
X153168914Y-97519345D01*
X153155764Y-97505270D01*
X153142308Y-97491522D01*
X153128580Y-97478064D01*
X153100450Y-97451869D01*
X153071652Y-97426388D01*
X153013165Y-97376378D01*
X152984032Y-97351254D01*
X152955344Y-97325653D01*
X152951405Y-97322550D01*
X152947407Y-97319526D01*
X152943351Y-97316582D01*
X152939239Y-97313718D01*
X152935071Y-97310934D01*
X152930849Y-97308233D01*
X152926574Y-97305615D01*
X152922247Y-97303080D01*
X152900735Y-97289224D01*
X152879044Y-97275639D01*
X152857316Y-97262124D01*
X152835694Y-97248480D01*
X152818977Y-97237393D01*
X152802511Y-97225908D01*
X152769761Y-97202643D01*
X152753193Y-97191314D01*
X152744798Y-97185823D01*
X152736306Y-97180486D01*
X152727698Y-97175330D01*
X152718957Y-97170384D01*
X152710065Y-97165677D01*
X152701005Y-97161235D01*
X152510964Y-97072222D01*
X152509998Y-97071677D01*
X152509003Y-97071218D01*
X152507983Y-97070847D01*
X152506946Y-97070562D01*
X152505895Y-97070363D01*
X152504835Y-97070249D01*
X152503773Y-97070220D01*
X152502714Y-97070276D01*
X152501662Y-97070416D01*
X152500624Y-97070639D01*
X152499603Y-97070945D01*
X152498606Y-97071333D01*
X152497639Y-97071804D01*
X152496705Y-97072356D01*
X152495811Y-97072989D01*
X152494962Y-97073703D01*
X152494975Y-97106246D01*
X152495822Y-97138800D01*
X152496902Y-97171346D01*
X152497617Y-97203865D01*
X152497368Y-97236338D01*
X152496694Y-97252551D01*
X152495555Y-97268746D01*
X152493876Y-97284920D01*
X152491581Y-97301071D01*
X152488596Y-97317196D01*
X152484846Y-97333293D01*
X152484820Y-97334122D01*
X152484835Y-97334948D01*
X152484892Y-97335769D01*
X152484990Y-97336584D01*
X152485127Y-97337390D01*
X152485304Y-97338188D01*
X152485521Y-97338975D01*
X152485776Y-97339750D01*
X152486069Y-97340511D01*
X152486399Y-97341257D01*
X152486767Y-97341987D01*
X152487171Y-97342699D01*
X152487611Y-97343391D01*
X152488087Y-97344063D01*
X152488597Y-97344712D01*
X152489143Y-97345338D01*
X152490621Y-97347179D01*
X152491970Y-97349036D01*
X152493193Y-97350910D01*
X152494297Y-97352799D01*
X152495287Y-97354703D01*
X152496168Y-97356621D01*
X152496947Y-97358552D01*
X152497628Y-97360497D01*
X152498217Y-97362454D01*
X152498720Y-97364423D01*
X152499488Y-97368394D01*
X152499977Y-97372404D01*
X152500231Y-97376450D01*
X152500292Y-97380526D01*
X152500207Y-97384627D01*
X152499770Y-97392886D01*
X152499273Y-97401188D01*
X152499112Y-97405343D01*
X152499067Y-97409494D01*
X152498734Y-97433111D01*
X152497609Y-97456682D01*
X152494211Y-97503769D01*
X152492554Y-97527327D01*
X152491335Y-97550920D01*
X152490861Y-97574571D01*
X152491000Y-97586424D01*
X152491441Y-97598299D01*
X152492767Y-97629993D01*
X152493557Y-97661705D01*
X152493863Y-97693429D01*
X152493740Y-97725161D01*
X152492415Y-97788631D01*
X152490004Y-97852079D01*
X152489669Y-97857001D01*
X152489412Y-97861927D01*
X152489235Y-97866856D01*
X152489136Y-97871787D01*
X152489117Y-97876719D01*
X152489177Y-97881650D01*
X152489316Y-97886581D01*
X152489534Y-97891510D01*
X152491571Y-97911307D01*
X152493277Y-97931131D01*
X152494652Y-97950979D01*
X152495696Y-97970845D01*
X152496409Y-97990726D01*
X152496791Y-98010617D01*
X152496841Y-98030515D01*
X152496559Y-98050414D01*
X152495592Y-98077641D01*
X152495438Y-98104825D01*
X152495887Y-98131977D01*
X152496732Y-98159105D01*
X152498772Y-98213333D01*
X152499549Y-98240452D01*
X152499886Y-98267586D01*
X152500168Y-98296631D01*
X152500805Y-98325681D01*
X152502494Y-98383783D01*
X152503655Y-98441857D01*
X152503631Y-98470874D01*
X152502988Y-98499871D01*
X152501962Y-98528074D01*
X152501645Y-98556280D01*
X152502037Y-98584477D01*
X152503137Y-98612651D01*
X152504943Y-98640788D01*
X152507456Y-98668876D01*
X152510675Y-98696900D01*
X152514599Y-98724847D01*
X152515656Y-98732543D01*
X152516266Y-98740165D01*
X152516469Y-98747719D01*
X152516304Y-98755212D01*
X152515810Y-98762651D01*
X152515025Y-98770043D01*
X152513989Y-98777394D01*
X152512739Y-98784711D01*
X152509758Y-98799269D01*
X152506391Y-98813770D01*
X152502951Y-98828267D01*
X152499747Y-98842815D01*
X152499203Y-98845017D01*
X152498528Y-98847167D01*
X152497728Y-98849259D01*
X152496805Y-98851290D01*
X152495764Y-98853254D01*
X152494610Y-98855146D01*
X152493345Y-98856962D01*
X152491974Y-98858697D01*
X152490501Y-98860347D01*
X152488930Y-98861905D01*
X152487265Y-98863369D01*
X152485510Y-98864732D01*
X152483669Y-98865991D01*
X152481746Y-98867140D01*
X152479744Y-98868175D01*
X152477669Y-98869091D01*
X152476855Y-98869376D01*
X152476059Y-98869691D01*
X152475280Y-98870035D01*
X152474518Y-98870407D01*
X152473776Y-98870807D01*
X152473052Y-98871234D01*
X152472348Y-98871687D01*
X152471664Y-98872166D01*
X152471001Y-98872669D01*
X152470359Y-98873196D01*
X152469739Y-98873746D01*
X152469142Y-98874318D01*
X152468567Y-98874912D01*
X152468016Y-98875527D01*
X152467489Y-98876162D01*
X152466987Y-98876816D01*
X152466509Y-98877489D01*
X152466058Y-98878180D01*
X152465633Y-98878888D01*
X152465235Y-98879612D01*
X152464864Y-98880351D01*
X152464521Y-98881106D01*
X152464207Y-98881875D01*
X152463921Y-98882656D01*
X152463666Y-98883451D01*
X152463440Y-98884257D01*
X152463246Y-98885075D01*
X152463082Y-98885902D01*
X152462951Y-98886740D01*
X152462852Y-98887586D01*
X152462786Y-98888440D01*
X152462753Y-98889301D01*
X152458729Y-98896696D01*
X152454504Y-98903973D01*
X152450081Y-98911127D01*
X152445462Y-98918154D01*
X152440649Y-98925050D01*
X152435647Y-98931812D01*
X152430457Y-98938435D01*
X152425082Y-98944915D01*
X152423777Y-98946007D01*
X152422409Y-98946990D01*
X152420984Y-98947863D01*
X152419508Y-98948624D01*
X152417989Y-98949272D01*
X152416432Y-98949807D01*
X152414844Y-98950228D01*
X152413232Y-98950533D01*
X152411602Y-98950722D01*
X152409961Y-98950793D01*
X152408315Y-98950747D01*
X152406672Y-98950580D01*
X152405036Y-98950293D01*
X152403416Y-98949885D01*
X152401817Y-98949354D01*
X152400246Y-98948700D01*
X152391558Y-98944969D01*
X152382931Y-98941103D01*
X152374366Y-98937103D01*
X152365866Y-98932969D01*
X152357431Y-98928703D01*
X152349064Y-98924305D01*
X152340766Y-98919775D01*
X152332539Y-98915115D01*
X152317526Y-98905328D01*
X152302345Y-98895858D01*
X152271532Y-98877767D01*
X152240215Y-98860640D01*
X152208505Y-98844276D01*
X152176518Y-98828472D01*
X152144366Y-98813025D01*
X152080023Y-98782398D01*
X152043179Y-98765190D01*
X152005985Y-98748710D01*
X151968522Y-98732791D01*
X151930868Y-98717269D01*
X151855303Y-98686749D01*
X151779924Y-98655826D01*
X151756899Y-98645913D01*
X151733978Y-98635707D01*
X151688216Y-98615096D01*
X151665258Y-98605028D01*
X151642171Y-98595344D01*
X151618896Y-98586213D01*
X151595376Y-98577804D01*
X151566999Y-98567828D01*
X151538853Y-98557293D01*
X151482923Y-98535311D01*
X151426938Y-98513395D01*
X151398720Y-98502943D01*
X151370245Y-98493082D01*
X151290167Y-98465739D01*
X151210368Y-98437391D01*
X151050899Y-98380151D01*
X150903881Y-98327558D01*
X150757311Y-98273698D01*
X150551935Y-98198794D01*
X150500779Y-98179559D01*
X150449854Y-98159701D01*
X150399238Y-98139008D01*
X150349009Y-98117271D01*
X150294203Y-98092488D01*
X150266741Y-98080187D01*
X150239139Y-98068215D01*
X150231031Y-98064688D01*
X150229009Y-98063912D01*
X150226990Y-98063244D01*
X150224974Y-98062714D01*
X150223967Y-98062512D01*
X150222962Y-98062356D01*
X150221958Y-98062251D01*
X150220955Y-98062202D01*
X150219953Y-98062211D01*
X150218952Y-98062282D01*
X150217953Y-98062421D01*
X150216956Y-98062631D01*
X150215960Y-98062916D01*
X150214966Y-98063279D01*
X150213973Y-98063726D01*
X150212982Y-98064260D01*
X150211994Y-98064885D01*
X150211007Y-98065605D01*
X150210022Y-98066424D01*
X150209039Y-98067346D01*
X150208058Y-98068375D01*
X150207079Y-98069515D01*
X150204337Y-98072751D01*
X150201514Y-98075846D01*
X150195639Y-98081640D01*
X150189481Y-98086946D01*
X150183068Y-98091811D01*
X150176428Y-98096282D01*
X150169588Y-98100407D01*
X150162575Y-98104234D01*
X150155417Y-98107811D01*
X150148143Y-98111183D01*
X150140778Y-98114401D01*
X150125891Y-98120558D01*
X150110977Y-98126663D01*
X150103578Y-98129815D01*
X150096255Y-98133096D01*
X150065106Y-98146821D01*
X150034195Y-98161060D01*
X150003530Y-98175810D01*
X149973117Y-98191067D01*
X149942963Y-98206830D01*
X149913073Y-98223093D01*
X149883455Y-98239855D01*
X149854114Y-98257111D01*
X149833165Y-98270860D01*
X149812640Y-98285131D01*
X149792454Y-98299827D01*
X149772526Y-98314850D01*
X149693752Y-98376242D01*
X149671980Y-98393296D01*
X149650536Y-98410734D01*
X149629426Y-98428554D01*
X149608654Y-98446749D01*
X149588226Y-98465315D01*
X149568145Y-98484246D01*
X149548417Y-98503538D01*
X149529046Y-98523186D01*
X149510038Y-98543185D01*
X149491397Y-98563530D01*
X149473128Y-98584215D01*
X149455236Y-98605236D01*
X149437726Y-98626589D01*
X149420602Y-98648267D01*
X149403869Y-98670265D01*
X149387532Y-98692580D01*
X149368496Y-98718710D01*
X149349172Y-98744658D01*
X149310259Y-98796393D01*
X149290972Y-98822373D01*
X149271996Y-98848557D01*
X149253483Y-98875042D01*
X149235583Y-98901924D01*
X149204955Y-98951290D01*
X149175355Y-99001259D01*
X149146791Y-99051813D01*
X149119272Y-99102936D01*
X149092806Y-99154613D01*
X149067401Y-99206826D01*
X149043067Y-99259560D01*
X149019812Y-99312798D01*
X149012175Y-99328894D01*
X149004881Y-99345142D01*
X148997931Y-99361535D01*
X148991329Y-99378069D01*
X148985076Y-99394739D01*
X148979174Y-99411538D01*
X148973625Y-99428461D01*
X148968433Y-99445503D01*
X148959119Y-99480966D01*
X148949108Y-99516252D01*
X148928533Y-99586687D01*
X148918742Y-99622035D01*
X148909795Y-99657600D01*
X148902080Y-99693484D01*
X148898804Y-99711575D01*
X148895981Y-99729783D01*
X148895652Y-99730829D01*
X148895287Y-99731861D01*
X148894887Y-99732877D01*
X148894452Y-99733877D01*
X148893983Y-99734860D01*
X148893480Y-99735825D01*
X148892945Y-99736771D01*
X148892376Y-99737698D01*
X148891776Y-99738604D01*
X148891144Y-99739489D01*
X148890482Y-99740353D01*
X148889788Y-99741193D01*
X148889065Y-99742009D01*
X148888313Y-99742801D01*
X148887532Y-99743567D01*
X148886723Y-99744307D01*
X148884706Y-99746452D01*
X148883695Y-99747551D01*
X148882703Y-99748668D01*
X148881747Y-99749804D01*
X148880843Y-99750957D01*
X148880007Y-99752129D01*
X148879255Y-99753319D01*
X148878916Y-99753921D01*
X148878604Y-99754527D01*
X148878321Y-99755138D01*
X148878069Y-99755754D01*
X148877850Y-99756374D01*
X148877667Y-99756999D01*
X148877521Y-99757629D01*
X148877414Y-99758263D01*
X148877348Y-99758902D01*
X148877325Y-99759546D01*
X148877348Y-99760194D01*
X148877418Y-99760847D01*
X148877538Y-99761505D01*
X148877708Y-99762167D01*
X148877933Y-99762834D01*
X148878212Y-99763506D01*
X148879061Y-99765504D01*
X148879770Y-99767468D01*
X148880345Y-99769398D01*
X148880793Y-99771297D01*
X148881119Y-99773166D01*
X148881331Y-99775006D01*
X148881434Y-99776819D01*
X148881435Y-99778607D01*
X148881339Y-99780372D01*
X148881154Y-99782114D01*
X148880885Y-99783835D01*
X148880538Y-99785538D01*
X148879637Y-99788892D01*
X148878501Y-99792188D01*
X148877179Y-99795440D01*
X148875722Y-99798659D01*
X148872601Y-99805050D01*
X148869537Y-99811461D01*
X148868151Y-99814706D01*
X148866928Y-99817993D01*
X148864272Y-99824129D01*
X148861814Y-99830341D01*
X148859556Y-99836626D01*
X148857499Y-99842977D01*
X148855646Y-99849391D01*
X148853996Y-99855862D01*
X148852553Y-99862385D01*
X148851316Y-99868956D01*
X148849838Y-99886619D01*
X148848005Y-99904244D01*
X148845816Y-99921824D01*
X148843273Y-99939355D01*
X148840378Y-99956830D01*
X148837129Y-99974246D01*
X148833530Y-99991596D01*
X148829580Y-100008875D01*
X148820047Y-100052117D01*
X148811268Y-100095555D01*
X148807205Y-100117355D01*
X148803385Y-100139212D01*
X148799825Y-100161129D01*
X148796542Y-100183108D01*
X148792472Y-100209534D01*
X148787945Y-100235961D01*
X148778410Y-100288780D01*
X148773848Y-100315153D01*
X148769720Y-100341489D01*
X148766247Y-100367780D01*
X148763654Y-100394016D01*
X148756847Y-100477305D01*
X148753653Y-100519042D01*
X148750927Y-100560832D01*
X148748913Y-100602669D01*
X148747856Y-100644547D01*
X148748000Y-100686459D01*
X148749592Y-100728400D01*
X148750372Y-100738989D01*
X148750969Y-100749587D01*
X148751383Y-100760192D01*
X148751614Y-100770802D01*
X148751662Y-100781415D01*
X148751527Y-100792028D01*
X148751209Y-100802638D01*
X148750708Y-100813244D01*
X148748297Y-100858997D01*
X148747028Y-100904775D01*
X148746902Y-100950555D01*
X148546858Y-100950555D01*
X148546060Y-100845091D01*
X148546696Y-100725659D01*
X148549122Y-100606245D01*
X148553588Y-100486877D01*
X148556681Y-100430007D01*
X148560999Y-100373237D01*
X148566539Y-100316586D01*
X148573300Y-100260075D01*
X148581279Y-100203722D01*
X148590472Y-100147549D01*
X148600878Y-100091574D01*
X148612494Y-100035817D01*
X148680745Y-99726527D01*
X148690904Y-99680917D01*
X148701581Y-99635451D01*
X148712789Y-99590130D01*
X148724546Y-99544957D01*
X148736867Y-99499933D01*
X148749767Y-99455060D01*
X148763261Y-99410339D01*
X148777365Y-99365771D01*
X148792515Y-99320814D01*
X148808615Y-99276204D01*
X148825659Y-99231959D01*
X148843640Y-99188092D01*
X148862553Y-99144619D01*
X148882392Y-99101553D01*
X148903149Y-99058912D01*
X148924819Y-99016708D01*
X148963652Y-98942522D01*
X148983286Y-98905553D01*
X149003326Y-98868819D01*
X149023968Y-98832432D01*
X149045408Y-98796507D01*
X149067842Y-98761156D01*
X149091466Y-98726492D01*
X149098598Y-98716518D01*
X149105819Y-98706604D01*
X149120499Y-98686944D01*
X149135455Y-98667491D01*
X149150639Y-98648223D01*
X149155877Y-98641508D01*
X149160353Y-98635423D01*
X149164051Y-98629915D01*
X149165603Y-98627361D01*
X149166956Y-98624931D01*
X149168107Y-98622619D01*
X149169054Y-98620418D01*
X149169795Y-98618321D01*
X149170329Y-98616322D01*
X149170653Y-98614414D01*
X149170766Y-98612591D01*
X149170666Y-98610846D01*
X149170351Y-98609171D01*
X149169819Y-98607562D01*
X149169068Y-98606010D01*
X149168097Y-98604509D01*
X149166903Y-98603053D01*
X149165485Y-98601635D01*
X149163840Y-98600248D01*
X149161967Y-98598886D01*
X149159865Y-98597542D01*
X149157530Y-98596210D01*
X149154962Y-98594882D01*
X149149116Y-98592214D01*
X149142313Y-98589485D01*
X149134537Y-98586642D01*
X149065319Y-98561913D01*
X149030689Y-98549612D01*
X148995964Y-98537586D01*
X148974725Y-98530699D01*
X148953385Y-98524142D01*
X148931948Y-98517916D01*
X148910419Y-98512023D01*
X148888802Y-98506464D01*
X148867100Y-98501240D01*
X148845317Y-98496351D01*
X148823457Y-98491800D01*
X148815629Y-98490274D01*
X148808520Y-98489111D01*
X148802061Y-98488337D01*
X148796182Y-98487977D01*
X148793440Y-98487961D01*
X148790816Y-98488058D01*
X148788304Y-98488272D01*
X148785893Y-98488605D01*
X148783577Y-98489061D01*
X148781345Y-98489644D01*
X148779189Y-98490356D01*
X148777102Y-98491201D01*
X148775073Y-98492182D01*
X148773095Y-98493302D01*
X148771159Y-98494565D01*
X148769256Y-98495973D01*
X148767378Y-98497530D01*
X148765516Y-98499240D01*
X148763662Y-98501105D01*
X148761806Y-98503128D01*
X148758057Y-98507663D01*
X148754201Y-98512872D01*
X148750167Y-98518780D01*
X148745888Y-98525413D01*
X148722362Y-98564061D01*
X148699907Y-98603311D01*
X148678534Y-98643143D01*
X148658254Y-98683532D01*
X148639078Y-98724458D01*
X148621017Y-98765896D01*
X148604082Y-98807825D01*
X148588284Y-98850222D01*
X148575872Y-98887261D01*
X148563995Y-98924469D01*
X148552657Y-98961839D01*
X148541857Y-98999367D01*
X148531598Y-99037047D01*
X148521881Y-99074872D01*
X148512709Y-99112836D01*
X148504082Y-99150935D01*
X148484144Y-99239152D01*
X148465603Y-99327631D01*
X148448029Y-99416303D01*
X148430993Y-99505098D01*
X148425385Y-99537506D01*
X148420622Y-99570039D01*
X148412163Y-99635264D01*
X148407732Y-99667849D01*
X148402677Y-99700344D01*
X148396631Y-99732696D01*
X148393120Y-99748802D01*
X148389225Y-99764851D01*
X148384293Y-99785201D01*
X148379859Y-99805636D01*
X148372246Y-99846721D01*
X148365902Y-99888027D01*
X148360344Y-99929472D01*
X148349657Y-100012456D01*
X148343561Y-100053835D01*
X148336320Y-100095030D01*
X148333612Y-100105133D01*
X148331130Y-100115290D01*
X148328873Y-100125496D01*
X148326844Y-100135749D01*
X148325042Y-100146045D01*
X148323469Y-100156379D01*
X148322124Y-100166747D01*
X148321009Y-100177147D01*
X148319812Y-100194934D01*
X148318286Y-100212690D01*
X148316433Y-100230412D01*
X148314252Y-100248095D01*
X148311745Y-100265735D01*
X148308911Y-100283327D01*
X148305752Y-100300866D01*
X148302269Y-100318349D01*
X148282801Y-100434557D01*
X148278272Y-100463646D01*
X148274163Y-100492770D01*
X148270616Y-100521941D01*
X148267775Y-100551168D01*
X148265992Y-100575609D01*
X148264642Y-100600102D01*
X148262810Y-100649204D01*
X148261408Y-100698379D01*
X148259568Y-100747532D01*
X148258498Y-100764211D01*
X148257048Y-100780882D01*
X148253972Y-100814232D01*
X148252833Y-100830925D01*
X148252469Y-100839278D01*
X148252283Y-100847637D01*
X148064993Y-100847637D01*
X148065007Y-100839884D01*
X148065177Y-100828729D01*
X148065497Y-100817578D01*
X148065967Y-100806432D01*
X148066588Y-100795292D01*
X148067358Y-100784160D01*
X148068847Y-100722770D01*
X148071286Y-100661422D01*
X148074671Y-100600126D01*
X148079004Y-100538893D01*
X148084283Y-100477735D01*
X148090507Y-100416662D01*
X148097676Y-100355685D01*
X148105788Y-100294815D01*
X148109260Y-100271219D01*
X148113068Y-100247648D01*
X148121415Y-100200451D01*
X148139062Y-100104944D01*
X148137063Y-100104526D01*
X148135123Y-100104214D01*
X148133241Y-100104005D01*
X148131414Y-100103894D01*
X148129641Y-100103877D01*
X148127919Y-100103949D01*
X148126247Y-100104106D01*
X148124621Y-100104344D01*
X148123041Y-100104658D01*
X148121504Y-100105044D01*
X148120008Y-100105497D01*
X148118551Y-100106014D01*
X148115746Y-100107220D01*
X148113072Y-100108626D01*
X148110513Y-100110198D01*
X148108053Y-100111901D01*
X148105674Y-100113700D01*
X148103360Y-100115559D01*
X148098863Y-100119322D01*
X148094429Y-100122910D01*
X148077796Y-100134835D01*
X148060954Y-100145310D01*
X148043909Y-100154381D01*
X148026666Y-100162097D01*
X148009231Y-100168508D01*
X147991609Y-100173661D01*
X147973807Y-100177605D01*
X147955829Y-100180388D01*
X147937681Y-100182059D01*
X147919369Y-100182666D01*
X147900899Y-100182258D01*
X147882276Y-100180884D01*
X147863505Y-100178591D01*
X147844593Y-100175429D01*
X147825545Y-100171446D01*
X147806366Y-100166690D01*
X147789552Y-100161744D01*
X147773292Y-100156031D01*
X147757572Y-100149576D01*
X147742381Y-100142405D01*
X147727705Y-100134544D01*
X147713533Y-100126016D01*
X147699850Y-100116848D01*
X147686645Y-100107065D01*
X147673905Y-100096691D01*
X147661616Y-100085753D01*
X147649767Y-100074276D01*
X147638345Y-100062284D01*
X147627337Y-100049803D01*
X147616730Y-100036858D01*
X147606511Y-100023475D01*
X147596668Y-100009678D01*
X147589610Y-99999954D01*
X147582915Y-99990008D01*
X147576588Y-99979850D01*
X147570634Y-99969491D01*
X147565055Y-99958942D01*
X147559855Y-99948212D01*
X147555040Y-99937313D01*
X147550612Y-99926254D01*
X147546576Y-99915046D01*
X147542935Y-99903700D01*
X147539694Y-99892226D01*
X147536857Y-99880635D01*
X147534427Y-99868936D01*
X147532409Y-99857141D01*
X147530806Y-99845259D01*
X147529623Y-99833301D01*
X147527825Y-99811092D01*
X147526626Y-99788854D01*
X147526025Y-99766601D01*
X147526025Y-99763656D01*
X147704541Y-99763656D01*
X147704681Y-99768307D01*
X147704992Y-99772966D01*
X147705476Y-99777629D01*
X147706134Y-99782293D01*
X147706968Y-99786951D01*
X147707980Y-99791601D01*
X147711593Y-99806366D01*
X147715779Y-99820800D01*
X147720558Y-99834872D01*
X147725954Y-99848555D01*
X147731986Y-99861821D01*
X147738678Y-99874642D01*
X147746049Y-99886988D01*
X147754123Y-99898831D01*
X147762920Y-99910144D01*
X147772462Y-99920897D01*
X147782770Y-99931062D01*
X147793867Y-99940611D01*
X147805773Y-99949516D01*
X147818510Y-99957748D01*
X147832100Y-99965278D01*
X147846564Y-99972079D01*
X147853742Y-99974934D01*
X147861110Y-99977401D01*
X147868644Y-99979481D01*
X147876321Y-99981174D01*
X147884117Y-99982484D01*
X147892008Y-99983412D01*
X147899972Y-99983958D01*
X147907985Y-99984125D01*
X147916022Y-99983914D01*
X147924062Y-99983326D01*
X147932079Y-99982364D01*
X147940052Y-99981029D01*
X147947955Y-99979322D01*
X147955767Y-99977245D01*
X147963462Y-99974799D01*
X147971019Y-99971986D01*
X147978413Y-99968807D01*
X147985620Y-99965265D01*
X147992618Y-99961360D01*
X147999382Y-99957094D01*
X148005890Y-99952469D01*
X148012118Y-99947486D01*
X148018042Y-99942147D01*
X148023638Y-99936453D01*
X148028884Y-99930406D01*
X148033756Y-99924007D01*
X148038231Y-99917258D01*
X148042284Y-99910160D01*
X148045892Y-99902716D01*
X148049032Y-99894926D01*
X148051681Y-99886792D01*
X148053815Y-99878316D01*
X148055050Y-99874021D01*
X148056173Y-99869701D01*
X148057186Y-99865358D01*
X148058086Y-99860994D01*
X148058875Y-99856612D01*
X148059551Y-99852213D01*
X148060116Y-99847800D01*
X148060567Y-99843374D01*
X148060907Y-99838938D01*
X148061133Y-99834495D01*
X148061246Y-99830046D01*
X148061246Y-99825593D01*
X148061133Y-99821138D01*
X148060906Y-99816685D01*
X148060565Y-99812234D01*
X148060110Y-99807789D01*
X148059480Y-99804305D01*
X148058995Y-99800859D01*
X148058444Y-99794078D01*
X148058415Y-99787439D01*
X148058869Y-99780940D01*
X148059765Y-99774575D01*
X148061063Y-99768341D01*
X148062722Y-99762234D01*
X148064701Y-99756249D01*
X148066961Y-99750382D01*
X148069461Y-99744630D01*
X148072161Y-99738987D01*
X148075020Y-99733450D01*
X148081053Y-99722675D01*
X148087237Y-99712274D01*
X148088731Y-99709742D01*
X148090048Y-99707390D01*
X148091192Y-99705196D01*
X148092164Y-99703139D01*
X148092964Y-99701197D01*
X148093594Y-99699348D01*
X148094056Y-99697571D01*
X148094224Y-99696703D01*
X148094351Y-99695845D01*
X148094436Y-99694994D01*
X148094480Y-99694148D01*
X148094483Y-99693303D01*
X148094445Y-99692458D01*
X148094366Y-99691609D01*
X148094246Y-99690754D01*
X148093887Y-99689015D01*
X148093366Y-99687219D01*
X148092688Y-99685344D01*
X148091851Y-99683370D01*
X148090858Y-99681274D01*
X148089986Y-99679508D01*
X148089051Y-99677780D01*
X148088056Y-99676090D01*
X148087001Y-99674441D01*
X148085889Y-99672833D01*
X148084720Y-99671268D01*
X148083496Y-99669747D01*
X148082218Y-99668273D01*
X148080887Y-99666846D01*
X148079505Y-99665467D01*
X148078072Y-99664139D01*
X148076591Y-99662863D01*
X148075063Y-99661640D01*
X148073488Y-99660472D01*
X148071868Y-99659359D01*
X148070205Y-99658305D01*
X148060353Y-99652545D01*
X148050349Y-99647089D01*
X148040202Y-99641940D01*
X148029917Y-99637099D01*
X148019502Y-99632569D01*
X148008965Y-99628353D01*
X147998312Y-99624452D01*
X147987550Y-99620868D01*
X147976687Y-99617605D01*
X147965730Y-99614664D01*
X147954686Y-99612047D01*
X147943562Y-99609757D01*
X147932366Y-99607796D01*
X147921104Y-99606167D01*
X147909783Y-99604871D01*
X147898411Y-99603911D01*
X147887942Y-99603598D01*
X147877737Y-99603975D01*
X147867783Y-99605004D01*
X147858069Y-99606645D01*
X147848584Y-99608860D01*
X147839314Y-99611608D01*
X147830249Y-99614852D01*
X147821376Y-99618552D01*
X147812683Y-99622668D01*
X147804158Y-99627162D01*
X147795791Y-99631994D01*
X147787567Y-99637126D01*
X147779477Y-99642518D01*
X147771507Y-99648131D01*
X147755882Y-99659864D01*
X147752120Y-99662778D01*
X147748488Y-99665812D01*
X147744988Y-99668964D01*
X147741622Y-99672227D01*
X147738391Y-99675598D01*
X147735297Y-99679073D01*
X147732341Y-99682647D01*
X147729525Y-99686316D01*
X147726850Y-99690076D01*
X147724318Y-99693921D01*
X147721931Y-99697849D01*
X147719690Y-99701854D01*
X147715653Y-99710080D01*
X147712219Y-99718565D01*
X147709401Y-99727273D01*
X147707212Y-99736171D01*
X147706357Y-99740681D01*
X147705664Y-99745224D01*
X147705134Y-99749798D01*
X147704769Y-99754397D01*
X147704571Y-99759018D01*
X147704541Y-99763656D01*
X147526025Y-99763656D01*
X147526023Y-99744343D01*
X147526619Y-99722093D01*
X147527814Y-99699863D01*
X147529606Y-99677665D01*
X147531996Y-99655511D01*
X147535344Y-99641998D01*
X147538978Y-99628564D01*
X147542898Y-99615214D01*
X147547102Y-99601953D01*
X147551589Y-99588784D01*
X147556356Y-99575713D01*
X147561403Y-99562743D01*
X147566728Y-99549881D01*
X147567215Y-99548879D01*
X147567729Y-99547894D01*
X147568271Y-99546924D01*
X147568840Y-99545972D01*
X147569436Y-99545037D01*
X147570058Y-99544121D01*
X147570705Y-99543223D01*
X147571378Y-99542344D01*
X147572076Y-99541485D01*
X147572799Y-99540646D01*
X147573546Y-99539828D01*
X147574316Y-99539031D01*
X147575110Y-99538256D01*
X147575926Y-99537503D01*
X147576765Y-99536774D01*
X147577626Y-99536068D01*
X147592467Y-99522244D01*
X147607882Y-99509186D01*
X147623840Y-99496907D01*
X147640312Y-99485419D01*
X147657266Y-99474737D01*
X147674672Y-99464871D01*
X147692500Y-99455836D01*
X147710720Y-99447644D01*
X147729301Y-99440308D01*
X147748213Y-99433840D01*
X147767425Y-99428254D01*
X147786907Y-99423562D01*
X147806629Y-99419778D01*
X147826560Y-99416913D01*
X147846669Y-99414981D01*
X147866928Y-99413995D01*
X147887942Y-99413020D01*
X147889213Y-99412961D01*
X147911496Y-99412794D01*
X147933752Y-99413490D01*
X147955956Y-99415049D01*
X147978083Y-99417467D01*
X148000108Y-99420742D01*
X148022006Y-99424872D01*
X148043751Y-99429855D01*
X148053952Y-99432890D01*
X148064042Y-99436224D01*
X148074015Y-99439854D01*
X148083863Y-99443776D01*
X148093582Y-99447986D01*
X148103164Y-99452481D01*
X148112604Y-99457258D01*
X148121895Y-99462313D01*
X148131032Y-99467643D01*
X148140008Y-99473243D01*
X148148816Y-99479112D01*
X148157451Y-99485244D01*
X148165907Y-99491637D01*
X148174177Y-99498288D01*
X148182255Y-99505192D01*
X148190135Y-99512346D01*
X148191873Y-99514019D01*
X148193575Y-99515759D01*
X148196936Y-99519351D01*
X148200355Y-99522938D01*
X148202128Y-99524670D01*
X148203965Y-99526332D01*
X148205883Y-99527898D01*
X148207900Y-99529348D01*
X148208950Y-99530021D01*
X148210031Y-99530656D01*
X148211146Y-99531250D01*
X148212295Y-99531800D01*
X148213481Y-99532303D01*
X148214707Y-99532756D01*
X148215973Y-99533157D01*
X148217284Y-99533502D01*
X148218639Y-99533789D01*
X148220043Y-99534015D01*
X148221496Y-99534176D01*
X148223001Y-99534270D01*
X148249196Y-99385030D01*
X148262430Y-99310591D01*
X148276059Y-99236271D01*
X148280089Y-99215541D01*
X148284361Y-99194856D01*
X148293363Y-99153573D01*
X148302532Y-99112320D01*
X148311334Y-99070993D01*
X148319839Y-99027798D01*
X148329327Y-98984825D01*
X148339793Y-98942093D01*
X148351233Y-98899616D01*
X148363641Y-98857413D01*
X148377014Y-98815498D01*
X148391346Y-98773890D01*
X148406633Y-98732605D01*
X148421728Y-98698362D01*
X148437283Y-98664331D01*
X148453297Y-98630518D01*
X148469768Y-98596926D01*
X148486694Y-98563560D01*
X148504071Y-98530426D01*
X148521897Y-98497528D01*
X148540171Y-98464870D01*
X148545092Y-98454844D01*
X148550186Y-98444908D01*
X148555450Y-98435063D01*
X148560884Y-98425311D01*
X148566487Y-98415656D01*
X148572257Y-98406098D01*
X148578192Y-98396641D01*
X148584293Y-98387286D01*
X148589278Y-98380567D01*
X148594427Y-98373984D01*
X148599737Y-98367540D01*
X148605204Y-98361238D01*
X148610826Y-98355081D01*
X148616599Y-98349072D01*
X148622522Y-98343213D01*
X148628590Y-98337507D01*
X148634801Y-98331957D01*
X148641151Y-98326565D01*
X148647639Y-98321335D01*
X148654260Y-98316268D01*
X148661012Y-98311368D01*
X148667892Y-98306637D01*
X148674897Y-98302079D01*
X148682024Y-98297695D01*
X148689426Y-98293631D01*
X148696990Y-98289966D01*
X148704700Y-98286701D01*
X148712540Y-98283839D01*
X148720496Y-98281381D01*
X148728550Y-98279329D01*
X148736687Y-98277686D01*
X148744892Y-98276453D01*
X148753148Y-98275633D01*
X148761440Y-98275227D01*
X148769751Y-98275237D01*
X148778067Y-98275665D01*
X148786371Y-98276514D01*
X148793440Y-98277600D01*
X148794647Y-98277785D01*
X148802879Y-98279480D01*
X148811053Y-98281601D01*
X148850225Y-98290401D01*
X148889269Y-98299727D01*
X148928181Y-98309575D01*
X148966955Y-98319946D01*
X149005585Y-98330838D01*
X149044068Y-98342249D01*
X149082397Y-98354178D01*
X149120567Y-98366623D01*
X149196427Y-98393032D01*
X149234251Y-98406520D01*
X149271868Y-98420546D01*
X149274176Y-98421643D01*
X149276512Y-98422622D01*
X149278873Y-98423482D01*
X149281253Y-98424226D01*
X149283651Y-98424853D01*
X149286061Y-98425365D01*
X149288479Y-98425763D01*
X149290904Y-98426048D01*
X149293330Y-98426221D01*
X149295753Y-98426284D01*
X149298171Y-98426236D01*
X149300579Y-98426079D01*
X149305351Y-98425443D01*
X149310039Y-98424383D01*
X149314614Y-98422908D01*
X149319045Y-98421026D01*
X149321197Y-98419935D01*
X149323303Y-98418745D01*
X149325357Y-98417458D01*
X149327357Y-98416074D01*
X149329298Y-98414594D01*
X149331177Y-98413020D01*
X149332991Y-98411352D01*
X149334735Y-98409592D01*
X149336405Y-98407740D01*
X149337999Y-98405798D01*
X149339512Y-98403766D01*
X149340940Y-98401646D01*
X149361396Y-98379094D01*
X149382309Y-98356997D01*
X149403671Y-98335363D01*
X149425473Y-98314198D01*
X149447709Y-98293507D01*
X149470369Y-98273298D01*
X149493447Y-98253577D01*
X149516933Y-98234350D01*
X149540821Y-98215624D01*
X149565101Y-98197404D01*
X149589767Y-98179698D01*
X149614810Y-98162511D01*
X149640221Y-98145851D01*
X149665995Y-98129723D01*
X149692121Y-98114134D01*
X149718593Y-98099090D01*
X149737371Y-98088341D01*
X149756290Y-98077759D01*
X149775338Y-98067350D01*
X149794505Y-98057121D01*
X149813781Y-98047076D01*
X149833155Y-98037222D01*
X149852616Y-98027565D01*
X149872154Y-98018110D01*
X149882479Y-98013961D01*
X149892876Y-98010003D01*
X149903341Y-98006235D01*
X149913873Y-98002658D01*
X149924467Y-97999273D01*
X149935123Y-97996082D01*
X149945836Y-97993085D01*
X149956605Y-97990282D01*
X149958873Y-97989556D01*
X149961083Y-97988782D01*
X149963223Y-97987950D01*
X149965283Y-97987050D01*
X149967252Y-97986070D01*
X149969121Y-97985000D01*
X149970879Y-97983828D01*
X149972515Y-97982545D01*
X149973284Y-97981858D01*
X149974018Y-97981139D01*
X149974717Y-97980386D01*
X149975379Y-97979599D01*
X149976003Y-97978776D01*
X149976587Y-97977915D01*
X149977130Y-97977016D01*
X149977631Y-97976076D01*
X149978088Y-97975095D01*
X149978501Y-97974071D01*
X149978867Y-97973003D01*
X149979186Y-97971890D01*
X149979456Y-97970730D01*
X149979676Y-97969521D01*
X149979844Y-97968263D01*
X149979960Y-97966954D01*
X149980008Y-97965804D01*
X149979996Y-97964690D01*
X149979926Y-97963612D01*
X149979801Y-97962568D01*
X149979622Y-97961557D01*
X149979392Y-97960579D01*
X149979113Y-97959631D01*
X149978786Y-97958714D01*
X149978415Y-97957826D01*
X149978001Y-97956967D01*
X149977547Y-97956134D01*
X149977054Y-97955328D01*
X149976524Y-97954547D01*
X149975961Y-97953790D01*
X149975365Y-97953056D01*
X149974739Y-97952344D01*
X149973406Y-97950984D01*
X149971978Y-97949699D01*
X149970473Y-97948483D01*
X149968907Y-97947328D01*
X149967297Y-97946224D01*
X149965661Y-97945165D01*
X149962377Y-97943148D01*
X149955478Y-97938428D01*
X149948452Y-97933909D01*
X149941305Y-97929593D01*
X149934039Y-97925482D01*
X149926660Y-97921578D01*
X149919171Y-97917883D01*
X149911578Y-97914401D01*
X149903885Y-97911133D01*
X149894252Y-97907412D01*
X149884719Y-97903466D01*
X149875290Y-97899301D01*
X149865969Y-97894916D01*
X149856758Y-97890315D01*
X149847663Y-97885499D01*
X149838686Y-97880472D01*
X149829832Y-97875235D01*
X149821104Y-97869791D01*
X149812505Y-97864141D01*
X149804040Y-97858288D01*
X149795712Y-97852235D01*
X149787525Y-97845983D01*
X149779483Y-97839535D01*
X149771588Y-97832893D01*
X149763846Y-97826059D01*
X149759409Y-97822720D01*
X149754912Y-97819465D01*
X149750355Y-97816297D01*
X149745739Y-97813216D01*
X149741066Y-97810222D01*
X149736337Y-97807317D01*
X149731553Y-97804501D01*
X149726716Y-97801774D01*
X149725770Y-97801196D01*
X149724836Y-97800588D01*
X149723924Y-97799949D01*
X149723042Y-97799275D01*
X149722199Y-97798566D01*
X149721405Y-97797817D01*
X149720669Y-97797028D01*
X149720326Y-97796618D01*
X149720000Y-97796196D01*
X149719693Y-97795763D01*
X149719407Y-97795318D01*
X149719141Y-97794861D01*
X149718898Y-97794392D01*
X149718679Y-97793911D01*
X149718484Y-97793417D01*
X149718315Y-97792909D01*
X149718173Y-97792389D01*
X149718058Y-97791854D01*
X149717974Y-97791306D01*
X149717919Y-97790743D01*
X149717896Y-97790166D01*
X149717905Y-97789574D01*
X149717948Y-97788967D01*
X149718026Y-97788344D01*
X149718141Y-97787706D01*
X149718302Y-97787012D01*
X149718491Y-97786364D01*
X149718707Y-97785759D01*
X149718948Y-97785196D01*
X149719215Y-97784673D01*
X149719506Y-97784190D01*
X149719820Y-97783743D01*
X149720155Y-97783333D01*
X149720512Y-97782957D01*
X149720888Y-97782614D01*
X149721283Y-97782302D01*
X149721697Y-97782020D01*
X149722127Y-97781767D01*
X149722573Y-97781540D01*
X149723033Y-97781339D01*
X149723508Y-97781162D01*
X149723996Y-97781007D01*
X149724495Y-97780872D01*
X149725005Y-97780758D01*
X149725526Y-97780661D01*
X149726591Y-97780514D01*
X149727685Y-97780421D01*
X149728797Y-97780369D01*
X149729921Y-97780347D01*
X149732170Y-97780341D01*
X149734062Y-97780412D01*
X149735954Y-97780613D01*
X149737847Y-97780912D01*
X149739741Y-97781281D01*
X149743535Y-97782108D01*
X149745436Y-97782507D01*
X149747341Y-97782857D01*
X149749249Y-97783127D01*
X149751162Y-97783289D01*
X149753080Y-97783312D01*
X149754041Y-97783263D01*
X149755004Y-97783168D01*
X149755968Y-97783023D01*
X149756933Y-97782825D01*
X149757900Y-97782570D01*
X149758869Y-97782254D01*
X149759840Y-97781874D01*
X149760813Y-97781426D01*
X149761787Y-97780906D01*
X149762764Y-97780311D01*
X149761889Y-97778638D01*
X149760931Y-97777052D01*
X149759894Y-97775549D01*
X149758784Y-97774120D01*
X149757606Y-97772759D01*
X149756366Y-97771459D01*
X149755069Y-97770215D01*
X149753720Y-97769019D01*
X149750887Y-97766744D01*
X149747912Y-97764582D01*
X149741699Y-97760384D01*
X149738548Y-97758241D01*
X149735423Y-97755998D01*
X149732367Y-97753602D01*
X149729423Y-97751000D01*
X149728006Y-97749604D01*
X149726633Y-97748137D01*
X149725309Y-97746592D01*
X149724039Y-97744962D01*
X149722829Y-97743240D01*
X149721685Y-97741420D01*
X149720610Y-97739495D01*
X149719612Y-97737459D01*
X149723005Y-97736405D01*
X149726244Y-97735265D01*
X149729304Y-97734018D01*
X149732164Y-97732645D01*
X149733511Y-97731905D01*
X149734800Y-97731125D01*
X149736026Y-97730304D01*
X149737188Y-97729439D01*
X149738282Y-97728527D01*
X149739306Y-97727566D01*
X149740257Y-97726553D01*
X149741131Y-97725487D01*
X149741926Y-97724363D01*
X149742640Y-97723180D01*
X149743268Y-97721936D01*
X149743809Y-97720627D01*
X149744259Y-97719252D01*
X149744615Y-97717807D01*
X149744875Y-97716291D01*
X149745036Y-97714701D01*
X149745094Y-97713034D01*
X149745048Y-97711287D01*
X149744954Y-97710174D01*
X149926509Y-97710174D01*
X149926536Y-97711113D01*
X149926642Y-97712054D01*
X149926828Y-97712993D01*
X149927094Y-97713930D01*
X149927438Y-97714862D01*
X149927862Y-97715786D01*
X149928364Y-97716700D01*
X149928944Y-97717602D01*
X149929602Y-97718490D01*
X149930337Y-97719361D01*
X149931150Y-97720214D01*
X149932040Y-97721045D01*
X149933007Y-97721854D01*
X149934051Y-97722637D01*
X149935171Y-97723392D01*
X149936367Y-97724117D01*
X149937335Y-97724651D01*
X149938314Y-97725161D01*
X149939305Y-97725646D01*
X149940307Y-97726106D01*
X149941319Y-97726541D01*
X149942341Y-97726951D01*
X149943372Y-97727336D01*
X149944412Y-97727696D01*
X149945461Y-97728030D01*
X149946518Y-97728338D01*
X149947582Y-97728621D01*
X149948654Y-97728877D01*
X149949732Y-97729108D01*
X149950816Y-97729312D01*
X149951906Y-97729489D01*
X149953001Y-97729640D01*
X149961228Y-97731266D01*
X149969411Y-97733069D01*
X149977548Y-97735046D01*
X149985636Y-97737197D01*
X149993671Y-97739521D01*
X150001652Y-97742017D01*
X150009575Y-97744684D01*
X150017438Y-97747521D01*
X150025238Y-97750526D01*
X150032972Y-97753700D01*
X150040638Y-97757040D01*
X150048233Y-97760546D01*
X150055753Y-97764217D01*
X150063197Y-97768052D01*
X150070562Y-97772049D01*
X150077844Y-97776208D01*
X150125990Y-97799737D01*
X150174387Y-97822722D01*
X150271747Y-97867460D01*
X150467440Y-97954784D01*
X150713293Y-98048570D01*
X150751902Y-98064693D01*
X150790946Y-98079447D01*
X150830302Y-98093208D01*
X150869851Y-98106353D01*
X150949039Y-98132296D01*
X150988436Y-98145846D01*
X151027539Y-98160285D01*
X151055631Y-98170722D01*
X151083951Y-98180580D01*
X151141029Y-98199220D01*
X151198278Y-98217520D01*
X151226814Y-98226955D01*
X151255207Y-98236799D01*
X151265646Y-98240621D01*
X151276041Y-98244569D01*
X151296796Y-98252590D01*
X151307199Y-98256533D01*
X151317650Y-98260345D01*
X151328171Y-98263961D01*
X151338785Y-98267318D01*
X151380181Y-98280172D01*
X151421352Y-98293785D01*
X151462211Y-98308108D01*
X151502666Y-98323094D01*
X151625930Y-98368920D01*
X151687469Y-98392212D01*
X151718101Y-98404262D01*
X151748600Y-98416702D01*
X151884686Y-98473026D01*
X151952566Y-98501496D01*
X152020131Y-98530639D01*
X152087227Y-98560803D01*
X152153699Y-98592337D01*
X152219392Y-98625592D01*
X152284152Y-98660918D01*
X152285346Y-98661810D01*
X152286588Y-98662609D01*
X152287874Y-98663314D01*
X152289198Y-98663925D01*
X152290555Y-98664441D01*
X152291940Y-98664861D01*
X152293347Y-98665185D01*
X152294772Y-98665412D01*
X152296208Y-98665541D01*
X152297652Y-98665572D01*
X152299097Y-98665504D01*
X152300539Y-98665336D01*
X152301973Y-98665068D01*
X152303392Y-98664699D01*
X152304793Y-98664229D01*
X152306169Y-98663656D01*
X152306485Y-98662990D01*
X152306786Y-98662318D01*
X152307073Y-98661640D01*
X152307345Y-98660956D01*
X152307602Y-98660267D01*
X152307844Y-98659573D01*
X152308071Y-98658874D01*
X152308283Y-98658170D01*
X152308480Y-98657462D01*
X152308661Y-98656749D01*
X152308827Y-98656033D01*
X152308978Y-98655313D01*
X152309113Y-98654590D01*
X152309233Y-98653863D01*
X152309337Y-98653134D01*
X152309425Y-98652402D01*
X152308217Y-98625683D01*
X152307358Y-98598966D01*
X152306489Y-98545531D01*
X152306421Y-98492076D01*
X152306756Y-98438581D01*
X152307068Y-98345312D01*
X152306775Y-98251973D01*
X152306474Y-98086609D01*
X152307063Y-97921240D01*
X152309097Y-97590497D01*
X152310653Y-97489926D01*
X152310913Y-97439668D01*
X152310534Y-97414562D01*
X152309673Y-97389477D01*
X152309193Y-97381802D01*
X152308496Y-97374137D01*
X152306711Y-97358838D01*
X152304844Y-97343572D01*
X152304044Y-97335950D01*
X152303420Y-97328334D01*
X152303037Y-97320724D01*
X152302963Y-97313118D01*
X152303262Y-97305516D01*
X152303999Y-97297917D01*
X152305241Y-97290320D01*
X152307054Y-97282724D01*
X152309502Y-97275130D01*
X152310985Y-97271332D01*
X152312651Y-97267535D01*
X152312973Y-97266453D01*
X152313234Y-97265362D01*
X152313435Y-97264263D01*
X152313577Y-97263158D01*
X152313658Y-97262051D01*
X152313681Y-97260943D01*
X152313645Y-97259837D01*
X152313550Y-97258735D01*
X152313396Y-97257640D01*
X152313185Y-97256554D01*
X152312916Y-97255479D01*
X152312589Y-97254418D01*
X152312204Y-97253373D01*
X152311763Y-97252347D01*
X152311265Y-97251341D01*
X152310710Y-97250359D01*
X152309314Y-97248167D01*
X152308040Y-97245964D01*
X152306881Y-97243750D01*
X152305834Y-97241527D01*
X152304893Y-97239293D01*
X152304053Y-97237050D01*
X152302656Y-97232536D01*
X152301605Y-97227989D01*
X152300860Y-97223411D01*
X152300381Y-97218805D01*
X152300128Y-97214174D01*
X152300062Y-97209522D01*
X152300143Y-97204850D01*
X152300587Y-97195462D01*
X152301144Y-97186033D01*
X152301496Y-97176587D01*
X152302019Y-97143060D01*
X152302263Y-97109514D01*
X152302138Y-97092750D01*
X152301772Y-97076002D01*
X152301109Y-97059277D01*
X152300092Y-97042582D01*
X152297265Y-96999713D01*
X152294932Y-96956823D01*
X152291231Y-96870998D01*
X152287957Y-96785155D01*
X152284078Y-96699344D01*
X152268181Y-96373600D01*
X152265031Y-96324833D01*
X152263766Y-96300393D01*
X152263414Y-96288174D01*
X152263327Y-96275960D01*
X152263562Y-96263758D01*
X152264179Y-96251569D01*
X152265234Y-96239400D01*
X152266787Y-96227254D01*
X152268895Y-96215134D01*
X152271616Y-96203047D01*
X152275008Y-96190995D01*
X152279129Y-96178983D01*
X152280287Y-96176042D01*
X152281285Y-96173059D01*
X152282122Y-96170040D01*
X152282798Y-96166992D01*
X152283315Y-96163921D01*
X152283671Y-96160833D01*
X152283867Y-96157735D01*
X152283903Y-96154632D01*
X152283780Y-96151532D01*
X152283496Y-96148441D01*
X152283053Y-96145364D01*
X152282451Y-96142309D01*
X152281688Y-96139281D01*
X152280767Y-96136287D01*
X152279686Y-96133333D01*
X152278445Y-96130426D01*
X152268896Y-96134527D01*
X152260030Y-96138273D01*
X152255806Y-96140098D01*
X152251697Y-96141936D01*
X152247684Y-96143820D01*
X152243749Y-96145784D01*
X152215460Y-96159710D01*
X152186782Y-96172825D01*
X152129067Y-96198342D01*
X152100434Y-96211603D01*
X152072219Y-96225773D01*
X152058332Y-96233334D01*
X152044625Y-96241282D01*
X152031123Y-96249673D01*
X152017853Y-96258560D01*
X152010952Y-96263148D01*
X152003879Y-96267459D01*
X151996655Y-96271531D01*
X151989304Y-96275402D01*
X151974307Y-96282696D01*
X151959066Y-96289648D01*
X151943758Y-96296565D01*
X151928560Y-96303753D01*
X151921059Y-96307545D01*
X151913652Y-96311520D01*
X151906363Y-96315716D01*
X151899212Y-96320172D01*
X151886523Y-96328089D01*
X151873655Y-96335670D01*
X151860735Y-96343150D01*
X151847891Y-96350761D01*
X151835250Y-96358737D01*
X151829047Y-96362935D01*
X151822942Y-96367312D01*
X151816952Y-96371896D01*
X151811093Y-96376717D01*
X151805381Y-96381805D01*
X151799831Y-96387188D01*
X151797644Y-96389316D01*
X151795387Y-96391343D01*
X151790681Y-96395107D01*
X151785740Y-96398522D01*
X151780592Y-96401629D01*
X151775265Y-96404471D01*
X151769786Y-96407088D01*
X151764183Y-96409522D01*
X151758484Y-96411814D01*
X151735284Y-96420402D01*
X151729521Y-96422611D01*
X151723829Y-96424927D01*
X151718235Y-96427394D01*
X151712767Y-96430051D01*
X151695095Y-96439422D01*
X151677634Y-96449203D01*
X151660325Y-96459278D01*
X151643106Y-96469529D01*
X151608694Y-96490099D01*
X151591378Y-96500183D01*
X151573908Y-96509979D01*
X151565878Y-96514598D01*
X151558054Y-96519513D01*
X151550408Y-96524680D01*
X151542909Y-96530054D01*
X151528240Y-96541247D01*
X151513813Y-96552736D01*
X151499395Y-96564165D01*
X151492117Y-96569747D01*
X151484753Y-96575180D01*
X151477275Y-96580421D01*
X151469653Y-96585425D01*
X151461858Y-96590148D01*
X151453861Y-96594544D01*
X151441111Y-96601558D01*
X151428711Y-96609077D01*
X151416608Y-96617021D01*
X151404747Y-96625312D01*
X151381538Y-96642618D01*
X151358652Y-96660365D01*
X151335658Y-96677921D01*
X151323986Y-96686431D01*
X151312124Y-96694656D01*
X151300019Y-96702518D01*
X151287618Y-96709939D01*
X151274865Y-96716839D01*
X151261708Y-96723139D01*
X151261226Y-96723365D01*
X151260753Y-96723610D01*
X151260287Y-96723872D01*
X151259829Y-96724150D01*
X151258934Y-96724751D01*
X151258064Y-96725406D01*
X151257215Y-96726108D01*
X151256383Y-96726848D01*
X151255565Y-96727619D01*
X151254757Y-96728415D01*
X151251551Y-96731684D01*
X151250738Y-96732486D01*
X151249912Y-96733267D01*
X151249071Y-96734019D01*
X151248211Y-96734735D01*
X151124578Y-96833655D01*
X151062622Y-96882937D01*
X151000368Y-96931834D01*
X150977446Y-96949680D01*
X150966043Y-96958655D01*
X150954723Y-96967722D01*
X150943516Y-96976924D01*
X150932457Y-96986304D01*
X150921577Y-96995904D01*
X150910908Y-97005767D01*
X150894905Y-97020491D01*
X150878544Y-97034793D01*
X150861928Y-97048798D01*
X150845162Y-97062632D01*
X150811597Y-97090292D01*
X150795007Y-97104369D01*
X150778685Y-97118777D01*
X150760245Y-97134897D01*
X150741337Y-97150496D01*
X150722097Y-97165726D01*
X150702661Y-97180740D01*
X150663742Y-97210736D01*
X150644530Y-97226025D01*
X150625666Y-97241710D01*
X150599239Y-97263869D01*
X150572447Y-97285573D01*
X150545360Y-97306900D01*
X150518047Y-97327924D01*
X150407915Y-97410514D01*
X150355280Y-97450010D01*
X150302988Y-97489875D01*
X150277093Y-97510108D01*
X150251433Y-97530629D01*
X150226056Y-97551501D01*
X150201013Y-97572790D01*
X150189776Y-97582023D01*
X150178291Y-97590909D01*
X150166566Y-97599443D01*
X150154608Y-97607622D01*
X150142426Y-97615440D01*
X150130029Y-97622895D01*
X150117425Y-97629980D01*
X150104621Y-97636693D01*
X150091627Y-97643030D01*
X150078451Y-97648985D01*
X150065101Y-97654555D01*
X150051585Y-97659735D01*
X150037911Y-97664522D01*
X150024089Y-97668911D01*
X150010126Y-97672898D01*
X149996030Y-97676478D01*
X149988493Y-97678531D01*
X149981002Y-97680738D01*
X149973560Y-97683099D01*
X149966169Y-97685612D01*
X149958831Y-97688277D01*
X149951549Y-97691093D01*
X149944325Y-97694058D01*
X149937162Y-97697173D01*
X149935874Y-97697784D01*
X149934670Y-97698433D01*
X149933551Y-97699116D01*
X149932515Y-97699833D01*
X149931562Y-97700580D01*
X149930692Y-97701355D01*
X149929906Y-97702156D01*
X149929202Y-97702981D01*
X149928580Y-97703828D01*
X149928040Y-97704695D01*
X149927582Y-97705578D01*
X149927206Y-97706476D01*
X149926910Y-97707387D01*
X149926696Y-97708309D01*
X149926562Y-97709238D01*
X149926509Y-97710174D01*
X149744954Y-97710174D01*
X149744893Y-97709459D01*
X149744628Y-97707546D01*
X149744249Y-97705547D01*
X149743753Y-97703459D01*
X149743138Y-97701278D01*
X149742401Y-97699004D01*
X149741778Y-97696969D01*
X149741296Y-97694907D01*
X149740943Y-97692821D01*
X149740706Y-97690713D01*
X149740535Y-97686434D01*
X149740692Y-97682085D01*
X149741083Y-97677680D01*
X149741614Y-97673232D01*
X149742727Y-97664262D01*
X149743122Y-97659767D01*
X149743285Y-97655285D01*
X149743122Y-97650829D01*
X149742890Y-97648614D01*
X149742542Y-97646412D01*
X149742066Y-97644222D01*
X149741450Y-97642048D01*
X149740683Y-97639890D01*
X149739753Y-97637751D01*
X149738649Y-97635632D01*
X149737359Y-97633535D01*
X149735871Y-97631462D01*
X149734173Y-97629413D01*
X149734061Y-97629270D01*
X149733962Y-97629108D01*
X149733875Y-97628927D01*
X149733800Y-97628730D01*
X149733738Y-97628518D01*
X149733686Y-97628291D01*
X149733617Y-97627797D01*
X149733589Y-97627259D01*
X149733602Y-97626685D01*
X149733651Y-97626084D01*
X149733736Y-97625466D01*
X149733853Y-97624838D01*
X149733999Y-97624209D01*
X149734173Y-97623590D01*
X149734371Y-97622988D01*
X149734592Y-97622412D01*
X149734832Y-97621872D01*
X149735090Y-97621376D01*
X149735362Y-97620933D01*
X149744023Y-97607556D01*
X149752439Y-97594038D01*
X149761005Y-97580676D01*
X149765467Y-97574148D01*
X149770114Y-97567772D01*
X149774995Y-97561585D01*
X149780160Y-97555624D01*
X149785657Y-97549928D01*
X149791537Y-97544534D01*
X149797848Y-97539478D01*
X149801180Y-97537089D01*
X149804639Y-97534799D01*
X149808230Y-97532612D01*
X149811960Y-97530534D01*
X149815834Y-97528569D01*
X149819860Y-97526721D01*
X149827372Y-97524001D01*
X149834800Y-97521090D01*
X149842143Y-97517987D01*
X149849395Y-97514696D01*
X149856554Y-97511219D01*
X149863616Y-97507557D01*
X149870577Y-97503714D01*
X149877434Y-97499690D01*
X149884184Y-97495488D01*
X149890823Y-97491111D01*
X149897347Y-97486560D01*
X149903754Y-97481838D01*
X149910038Y-97476946D01*
X149916198Y-97471887D01*
X149922229Y-97466663D01*
X149928128Y-97461276D01*
X149929912Y-97459472D01*
X149931784Y-97457748D01*
X149933740Y-97456100D01*
X149935776Y-97454526D01*
X149940073Y-97451582D01*
X149944642Y-97448889D01*
X149949450Y-97446419D01*
X149954464Y-97444144D01*
X149959652Y-97442036D01*
X149964982Y-97440068D01*
X149975935Y-97436436D01*
X149987062Y-97433026D01*
X149998103Y-97429616D01*
X150003510Y-97427841D01*
X150008797Y-97425982D01*
X150013782Y-97424292D01*
X150018857Y-97422789D01*
X150029135Y-97420077D01*
X150039352Y-97417315D01*
X150044350Y-97415750D01*
X150049227Y-97413973D01*
X150053949Y-97411917D01*
X150058481Y-97409517D01*
X150060665Y-97408167D01*
X150062788Y-97406707D01*
X150064847Y-97405126D01*
X150066835Y-97403419D01*
X150068750Y-97401575D01*
X150070587Y-97399587D01*
X150072341Y-97397447D01*
X150074009Y-97395145D01*
X150075585Y-97392675D01*
X150077066Y-97390027D01*
X150078446Y-97387194D01*
X150079722Y-97384166D01*
X150080567Y-97382698D01*
X150081492Y-97381293D01*
X150082494Y-97379953D01*
X150083570Y-97378681D01*
X150084716Y-97377479D01*
X150085927Y-97376349D01*
X150087202Y-97375295D01*
X150088535Y-97374319D01*
X150089924Y-97373423D01*
X150091364Y-97372610D01*
X150092852Y-97371882D01*
X150094384Y-97371242D01*
X150095957Y-97370692D01*
X150097567Y-97370235D01*
X150099210Y-97369874D01*
X150100883Y-97369610D01*
X150104150Y-97369624D01*
X150107334Y-97369490D01*
X150110436Y-97369214D01*
X150113462Y-97368802D01*
X150116415Y-97368260D01*
X150119297Y-97367595D01*
X150122113Y-97366813D01*
X150124866Y-97365920D01*
X150127560Y-97364923D01*
X150130198Y-97363826D01*
X150135320Y-97361363D01*
X150140261Y-97358581D01*
X150145049Y-97355528D01*
X150149712Y-97352255D01*
X150154278Y-97348811D01*
X150163233Y-97341609D01*
X150172139Y-97334320D01*
X150176645Y-97330767D01*
X150181222Y-97327341D01*
X150200026Y-97313330D01*
X150218618Y-97298916D01*
X150255716Y-97269939D01*
X150274496Y-97255904D01*
X150284004Y-97249116D01*
X150293614Y-97242525D01*
X150303342Y-97236164D01*
X150313206Y-97230066D01*
X150323223Y-97224264D01*
X150333410Y-97218792D01*
X150348832Y-97210596D01*
X150363994Y-97202062D01*
X150378916Y-97193214D01*
X150393617Y-97184079D01*
X150422434Y-97165053D01*
X150450601Y-97145190D01*
X150478272Y-97124699D01*
X150505602Y-97103787D01*
X150559858Y-97061536D01*
X150617687Y-97016029D01*
X150674904Y-96969647D01*
X150731436Y-96922357D01*
X150759423Y-96898360D01*
X150787211Y-96874123D01*
X150812093Y-96852655D01*
X150837335Y-96831597D01*
X150888533Y-96790293D01*
X150940083Y-96749380D01*
X150965764Y-96728811D01*
X150991262Y-96708028D01*
X150996132Y-96704134D01*
X151001122Y-96700333D01*
X151011277Y-96692848D01*
X151021354Y-96685247D01*
X151026247Y-96681302D01*
X151030980Y-96677206D01*
X151035508Y-96672919D01*
X151039784Y-96668400D01*
X151043760Y-96663608D01*
X151045622Y-96661097D01*
X151047392Y-96658503D01*
X151049063Y-96655820D01*
X151050631Y-96653044D01*
X151052089Y-96650169D01*
X151053432Y-96647191D01*
X151054653Y-96644104D01*
X151055748Y-96640903D01*
X151056709Y-96637583D01*
X151057532Y-96634139D01*
X151057615Y-96633830D01*
X151057732Y-96633512D01*
X151057882Y-96633185D01*
X151058062Y-96632851D01*
X151058271Y-96632512D01*
X151058506Y-96632169D01*
X151058766Y-96631823D01*
X151059048Y-96631476D01*
X151059671Y-96630785D01*
X151060359Y-96630106D01*
X151061097Y-96629452D01*
X151061867Y-96628834D01*
X151062654Y-96628263D01*
X151063442Y-96627751D01*
X151064214Y-96627309D01*
X151064954Y-96626949D01*
X151065307Y-96626803D01*
X151065646Y-96626682D01*
X151065969Y-96626588D01*
X151066274Y-96626521D01*
X151066559Y-96626483D01*
X151066822Y-96626475D01*
X151067061Y-96626500D01*
X151067274Y-96626558D01*
X151070001Y-96627500D01*
X151072629Y-96628233D01*
X151075160Y-96628768D01*
X151077600Y-96629113D01*
X151079953Y-96629277D01*
X151082223Y-96629269D01*
X151084414Y-96629099D01*
X151086531Y-96628775D01*
X151088577Y-96628307D01*
X151090558Y-96627703D01*
X151092477Y-96626972D01*
X151094339Y-96626125D01*
X151096148Y-96625169D01*
X151097908Y-96624115D01*
X151099624Y-96622970D01*
X151101300Y-96621744D01*
X151126144Y-96598554D01*
X151205607Y-96537230D01*
X151284806Y-96475562D01*
X151286684Y-96474362D01*
X151288539Y-96473130D01*
X151290370Y-96471864D01*
X151292177Y-96470566D01*
X151293959Y-96469235D01*
X151295716Y-96467873D01*
X151297449Y-96466479D01*
X151299155Y-96465054D01*
X151300835Y-96463598D01*
X151302488Y-96462112D01*
X151304115Y-96460596D01*
X151305714Y-96459050D01*
X151307285Y-96457474D01*
X151308828Y-96455870D01*
X151310342Y-96454237D01*
X151311827Y-96452576D01*
X151319880Y-96441682D01*
X151328434Y-96431434D01*
X151337446Y-96421777D01*
X151346874Y-96412659D01*
X151356674Y-96404025D01*
X151366802Y-96395822D01*
X151377217Y-96387996D01*
X151387874Y-96380495D01*
X151398730Y-96373265D01*
X151409744Y-96366253D01*
X151432067Y-96352666D01*
X151454500Y-96339308D01*
X151476696Y-96325751D01*
X151549599Y-96281240D01*
X151623411Y-96238299D01*
X151772632Y-96155161D01*
X151922101Y-96072402D01*
X151996222Y-96029937D01*
X152069557Y-95986092D01*
X152087304Y-95975664D01*
X152105411Y-95965820D01*
X152123796Y-95956430D01*
X152142382Y-95947367D01*
X152179834Y-95929701D01*
X152198543Y-95920841D01*
X152217134Y-95911792D01*
X152278445Y-95896756D01*
X152329407Y-95884258D01*
X152330537Y-95883756D01*
X152331622Y-95883373D01*
X152332665Y-95883104D01*
X152333666Y-95882944D01*
X152334629Y-95882886D01*
X152335555Y-95882926D01*
G37*
G36*
X152402304Y-95949171D02*
G01*
X152402055Y-95949083D01*
X152402453Y-95948759D01*
X152402304Y-95949171D01*
G37*
G36*
X152407731Y-95921485D02*
G01*
X152407995Y-95921504D01*
X152408256Y-95921537D01*
X152408514Y-95921585D01*
X152408769Y-95921646D01*
X152409020Y-95921721D01*
X152409266Y-95921809D01*
X152409508Y-95921910D01*
X152409743Y-95922025D01*
X152409972Y-95922152D01*
X152410195Y-95922292D01*
X152410410Y-95922444D01*
X152410617Y-95922609D01*
X152410816Y-95922785D01*
X152411005Y-95922973D01*
X152411280Y-95923255D01*
X152411537Y-95923551D01*
X152411776Y-95923860D01*
X152411995Y-95924181D01*
X152412195Y-95924513D01*
X152412375Y-95924854D01*
X152412536Y-95925205D01*
X152412676Y-95925564D01*
X152412796Y-95925931D01*
X152412894Y-95926304D01*
X152412972Y-95926683D01*
X152413028Y-95927066D01*
X152413062Y-95927453D01*
X152413074Y-95927843D01*
X152413063Y-95928235D01*
X152413030Y-95928628D01*
X152412974Y-95929018D01*
X152412895Y-95929402D01*
X152412796Y-95929779D01*
X152412675Y-95930149D01*
X152412534Y-95930509D01*
X152412373Y-95930861D01*
X152412193Y-95931202D01*
X152411993Y-95931532D01*
X152411776Y-95931850D01*
X152411540Y-95932156D01*
X152411287Y-95932448D01*
X152411017Y-95932726D01*
X152410731Y-95932988D01*
X152410429Y-95933235D01*
X152410112Y-95933466D01*
X152409780Y-95933679D01*
X152409311Y-95933980D01*
X152408855Y-95934297D01*
X152408412Y-95934627D01*
X152407983Y-95934972D01*
X152407568Y-95935330D01*
X152407167Y-95935701D01*
X152406780Y-95936085D01*
X152406408Y-95936481D01*
X152406051Y-95936889D01*
X152405708Y-95937308D01*
X152405380Y-95937737D01*
X152405068Y-95938178D01*
X152404771Y-95938628D01*
X152404491Y-95939087D01*
X152404226Y-95939556D01*
X152403977Y-95940034D01*
X152403745Y-95940519D01*
X152403530Y-95941013D01*
X152403331Y-95941513D01*
X152403150Y-95942021D01*
X152402986Y-95942535D01*
X152402839Y-95943055D01*
X152402710Y-95943581D01*
X152402599Y-95944112D01*
X152402507Y-95944647D01*
X152402433Y-95945187D01*
X152402377Y-95945731D01*
X152402340Y-95946278D01*
X152402323Y-95946828D01*
X152402325Y-95947380D01*
X152402346Y-95947935D01*
X152402387Y-95948491D01*
X152402391Y-95948534D01*
X152402394Y-95948577D01*
X152402395Y-95948620D01*
X152402396Y-95948663D01*
X152402395Y-95948706D01*
X152402393Y-95948748D01*
X152402389Y-95948791D01*
X152402385Y-95948834D01*
X152402379Y-95948876D01*
X152402372Y-95948918D01*
X152402363Y-95948960D01*
X152402354Y-95949002D01*
X152402343Y-95949044D01*
X152402331Y-95949085D01*
X152402318Y-95949126D01*
X152402303Y-95949166D01*
X152402008Y-95940442D01*
X152401903Y-95936081D01*
X152401887Y-95933901D01*
X152401906Y-95931722D01*
X152401921Y-95930138D01*
X152401964Y-95928540D01*
X152402020Y-95927751D01*
X152402113Y-95926978D01*
X152402252Y-95926226D01*
X152402447Y-95925503D01*
X152402569Y-95925154D01*
X152402708Y-95924814D01*
X152402866Y-95924485D01*
X152403044Y-95924166D01*
X152403244Y-95923860D01*
X152403466Y-95923566D01*
X152403712Y-95923285D01*
X152403983Y-95923018D01*
X152404280Y-95922767D01*
X152404604Y-95922531D01*
X152404958Y-95922312D01*
X152405341Y-95922110D01*
X152405756Y-95921926D01*
X152406203Y-95921761D01*
X152406683Y-95921616D01*
X152407198Y-95921491D01*
X152407465Y-95921481D01*
X152407731Y-95921485D01*
G37*
G36*
X152026700Y-100571567D02*
G01*
X152081344Y-100573116D01*
X152136011Y-100573930D01*
X152245385Y-100574441D01*
X152354771Y-100575287D01*
X152409453Y-100576518D01*
X152464118Y-100578653D01*
X152492433Y-100581425D01*
X152520698Y-100584618D01*
X152548909Y-100588231D01*
X152577062Y-100592263D01*
X152605152Y-100596714D01*
X152633174Y-100601583D01*
X152661124Y-100606869D01*
X152688996Y-100612572D01*
X152696635Y-100614075D01*
X152700226Y-100614946D01*
X152703669Y-100615898D01*
X152706966Y-100616933D01*
X152710122Y-100618053D01*
X152713138Y-100619258D01*
X152716019Y-100620551D01*
X152718767Y-100621933D01*
X152721385Y-100623404D01*
X152723877Y-100624968D01*
X152726245Y-100626625D01*
X152728493Y-100628376D01*
X152730624Y-100630223D01*
X152732641Y-100632168D01*
X152734547Y-100634212D01*
X152736346Y-100636357D01*
X152738039Y-100638603D01*
X152739631Y-100640953D01*
X152741125Y-100643408D01*
X152742523Y-100645969D01*
X152743829Y-100648637D01*
X152745046Y-100651415D01*
X152746177Y-100654304D01*
X152748193Y-100660420D01*
X152749903Y-100666996D01*
X152751331Y-100674044D01*
X152752502Y-100681576D01*
X152752589Y-100682673D01*
X152752633Y-100683770D01*
X152752634Y-100684866D01*
X152752593Y-100685958D01*
X152752511Y-100687047D01*
X152752387Y-100688131D01*
X152752221Y-100689208D01*
X152752015Y-100690278D01*
X152751768Y-100691339D01*
X152751480Y-100692390D01*
X152751151Y-100693430D01*
X152750783Y-100694458D01*
X152750375Y-100695472D01*
X152749927Y-100696472D01*
X152749440Y-100697456D01*
X152748914Y-100698423D01*
X152747090Y-100702138D01*
X152745131Y-100705782D01*
X152743063Y-100709370D01*
X152740913Y-100712916D01*
X152732033Y-100726963D01*
X152729876Y-100730512D01*
X152727799Y-100734104D01*
X152725827Y-100737754D01*
X152723989Y-100741476D01*
X152722310Y-100745283D01*
X152720817Y-100749192D01*
X152719537Y-100753215D01*
X152718498Y-100757366D01*
X152718164Y-100758148D01*
X152717789Y-100758905D01*
X152717375Y-100759637D01*
X152716922Y-100760343D01*
X152716433Y-100761021D01*
X152715909Y-100761670D01*
X152715351Y-100762288D01*
X152714760Y-100762874D01*
X152714139Y-100763428D01*
X152713488Y-100763947D01*
X152712808Y-100764430D01*
X152712101Y-100764877D01*
X152711369Y-100765285D01*
X152710613Y-100765654D01*
X152709834Y-100765982D01*
X152709034Y-100766267D01*
X152702553Y-100768340D01*
X152696142Y-100770711D01*
X152689787Y-100773310D01*
X152683469Y-100776068D01*
X152670884Y-100781784D01*
X152658257Y-100787304D01*
X152651887Y-100789817D01*
X152645458Y-100792073D01*
X152638953Y-100794002D01*
X152632357Y-100795536D01*
X152625652Y-100796604D01*
X152622254Y-100796942D01*
X152618823Y-100797137D01*
X152615357Y-100797182D01*
X152611854Y-100797067D01*
X152608311Y-100796783D01*
X152604728Y-100796323D01*
X152559839Y-100790865D01*
X152514862Y-100786332D01*
X152469811Y-100782725D01*
X152424700Y-100780044D01*
X152379543Y-100778290D01*
X152334355Y-100777463D01*
X152289151Y-100777565D01*
X152243944Y-100778595D01*
X152175825Y-100778754D01*
X152107696Y-100778073D01*
X152039565Y-100777252D01*
X151971436Y-100776989D01*
X151810541Y-100777549D01*
X151730143Y-100779035D01*
X151689982Y-100780437D01*
X151649856Y-100782414D01*
X151592289Y-100785268D01*
X151577886Y-100786084D01*
X151563505Y-100787055D01*
X151549158Y-100788238D01*
X151534858Y-100789690D01*
X151529029Y-100790160D01*
X151523295Y-100790270D01*
X151517649Y-100790059D01*
X151512079Y-100789564D01*
X151506576Y-100788823D01*
X151501130Y-100787874D01*
X151495732Y-100786754D01*
X151490371Y-100785501D01*
X151469113Y-100779912D01*
X151458458Y-100777299D01*
X151453089Y-100776170D01*
X151447681Y-100775209D01*
X151446043Y-100774893D01*
X151444459Y-100774479D01*
X151442924Y-100773971D01*
X151441438Y-100773374D01*
X151439997Y-100772693D01*
X151438599Y-100771933D01*
X151437240Y-100771097D01*
X151435920Y-100770192D01*
X151434634Y-100769221D01*
X151433381Y-100768190D01*
X151432157Y-100767103D01*
X151430961Y-100765966D01*
X151428640Y-100763556D01*
X151426397Y-100761000D01*
X151424211Y-100758334D01*
X151422061Y-100755598D01*
X151417789Y-100750065D01*
X151415626Y-100747345D01*
X151413416Y-100744705D01*
X151411139Y-100742185D01*
X151408775Y-100739821D01*
X151407473Y-100738636D01*
X151406244Y-100737400D01*
X151405085Y-100736117D01*
X151403999Y-100734791D01*
X151402984Y-100733423D01*
X151402042Y-100732016D01*
X151401172Y-100730574D01*
X151400376Y-100729099D01*
X151399653Y-100727594D01*
X151399003Y-100726062D01*
X151398427Y-100724505D01*
X151397925Y-100722926D01*
X151397497Y-100721329D01*
X151397144Y-100719716D01*
X151396866Y-100718089D01*
X151396663Y-100716452D01*
X151396536Y-100714808D01*
X151396484Y-100713159D01*
X151396509Y-100711507D01*
X151396609Y-100709857D01*
X151396787Y-100708210D01*
X151397041Y-100706570D01*
X151397373Y-100704939D01*
X151397781Y-100703320D01*
X151398268Y-100701715D01*
X151398833Y-100700129D01*
X151399476Y-100698563D01*
X151400197Y-100697020D01*
X151400998Y-100695504D01*
X151401877Y-100694016D01*
X151402836Y-100692560D01*
X151403875Y-100691138D01*
X151404194Y-100690652D01*
X151404487Y-100690155D01*
X151404753Y-100689650D01*
X151404992Y-100689136D01*
X151405205Y-100688614D01*
X151405391Y-100688087D01*
X151405552Y-100687554D01*
X151405686Y-100687016D01*
X151405794Y-100686475D01*
X151405877Y-100685931D01*
X151405934Y-100685385D01*
X151405966Y-100684838D01*
X151405972Y-100684291D01*
X151405953Y-100683746D01*
X151405909Y-100683202D01*
X151405840Y-100682661D01*
X151405746Y-100682124D01*
X151405628Y-100681591D01*
X151405485Y-100681064D01*
X151405318Y-100680544D01*
X151405127Y-100680031D01*
X151404911Y-100679526D01*
X151404672Y-100679031D01*
X151404409Y-100678546D01*
X151404122Y-100678071D01*
X151403811Y-100677609D01*
X151403477Y-100677160D01*
X151403120Y-100676725D01*
X151402740Y-100676304D01*
X151402337Y-100675899D01*
X151401911Y-100675511D01*
X151401463Y-100675141D01*
X151400241Y-100674082D01*
X151399149Y-100673042D01*
X151398184Y-100672019D01*
X151397338Y-100671011D01*
X151396607Y-100670017D01*
X151395985Y-100669035D01*
X151395467Y-100668064D01*
X151395047Y-100667102D01*
X151394721Y-100666148D01*
X151394482Y-100665200D01*
X151394325Y-100664257D01*
X151394246Y-100663316D01*
X151394237Y-100662377D01*
X151394295Y-100661438D01*
X151394414Y-100660497D01*
X151394588Y-100659554D01*
X151394811Y-100658605D01*
X151395080Y-100657651D01*
X151395728Y-100655717D01*
X151396491Y-100653740D01*
X151397323Y-100651708D01*
X151398182Y-100649608D01*
X151399026Y-100647427D01*
X151399810Y-100645155D01*
X151400491Y-100642778D01*
X151401617Y-100638638D01*
X151402839Y-100634721D01*
X151404156Y-100631019D01*
X151405569Y-100627527D01*
X151407077Y-100624237D01*
X151408679Y-100621142D01*
X151410375Y-100618236D01*
X151412165Y-100615511D01*
X151414047Y-100612962D01*
X151416022Y-100610580D01*
X151418088Y-100608360D01*
X151420246Y-100606294D01*
X151422495Y-100604375D01*
X151424834Y-100602597D01*
X151427263Y-100600953D01*
X151429781Y-100599437D01*
X151432389Y-100598040D01*
X151435085Y-100596757D01*
X151437868Y-100595581D01*
X151440739Y-100594504D01*
X151443697Y-100593520D01*
X151446742Y-100592622D01*
X151453088Y-100591058D01*
X151459773Y-100589756D01*
X151466795Y-100588662D01*
X151474148Y-100587721D01*
X151481829Y-100586879D01*
X151499950Y-100584714D01*
X151517870Y-100582178D01*
X151552609Y-100577163D01*
X151569179Y-100575270D01*
X151577209Y-100574605D01*
X151585048Y-100574178D01*
X151592681Y-100574023D01*
X151600092Y-100574179D01*
X151607266Y-100574681D01*
X151614187Y-100575566D01*
X151629224Y-100574661D01*
X151644271Y-100574191D01*
X151659320Y-100574156D01*
X151674360Y-100574556D01*
X151689382Y-100575389D01*
X151704378Y-100576656D01*
X151719336Y-100578357D01*
X151734249Y-100580490D01*
X151737289Y-100581001D01*
X151740337Y-100581434D01*
X151743393Y-100581789D01*
X151746454Y-100582066D01*
X151749519Y-100582265D01*
X151752587Y-100582386D01*
X151755656Y-100582430D01*
X151758724Y-100582396D01*
X151761791Y-100582285D01*
X151764855Y-100582095D01*
X151767913Y-100581829D01*
X151770966Y-100581484D01*
X151774010Y-100581062D01*
X151777045Y-100580563D01*
X151780070Y-100579986D01*
X151783082Y-100579332D01*
X151784668Y-100578801D01*
X151786265Y-100578311D01*
X151787872Y-100577859D01*
X151789488Y-100577448D01*
X151791113Y-100577076D01*
X151792746Y-100576745D01*
X151794386Y-100576453D01*
X151796032Y-100576202D01*
X151797684Y-100575991D01*
X151799341Y-100575820D01*
X151801002Y-100575689D01*
X151802666Y-100575600D01*
X151804333Y-100575551D01*
X151806002Y-100575543D01*
X151807672Y-100575575D01*
X151809343Y-100575649D01*
X151822977Y-100578241D01*
X151836592Y-100580010D01*
X151850190Y-100581052D01*
X151863774Y-100581462D01*
X151877347Y-100581334D01*
X151890911Y-100580763D01*
X151918025Y-100578673D01*
X151972274Y-100573351D01*
X151985857Y-100572337D01*
X151999454Y-100571638D01*
X152013067Y-100571349D01*
X152026700Y-100571567D01*
G37*
M02*
