M48
; DRILL file {KiCad 8.0.3} date 2024-10-02T14:15:10+1000
; FORMAT={-:-/ absolute / inch / decimal}
; #@! TF.CreationDate,2024-10-02T14:15:10+10:00
; #@! TF.GenerationSoftware,Kicad,Pcbnew,8.0.3
; #@! TF.FileFunction,Plated,1,2,PTH
FMAT,2
INCH
; #@! TA.AperFunction,Plated,PTH,ViaDrill
T1C0.0118
; #@! TA.AperFunction,Plated,PTH,ComponentDrill
T2C0.0315
%
G90
G05
T1
X5.7835Y-4.0295
X5.8307Y-3.6201
X5.8307Y-3.7362
X5.8307Y-4.0276
X5.9291Y-3.815
X6.0236Y-3.8228
T2
X5.7433Y-3.5827
X5.7433Y-3.6827
X5.7433Y-3.7827
X5.7433Y-3.8827
X5.7433Y-3.9827
X5.7433Y-4.0827
X5.7433Y-4.1827
X5.7433Y-4.2827
X6.1433Y-3.5827
X6.1433Y-3.6827
X6.1433Y-3.7827
X6.1433Y-3.8827
X6.1433Y-3.9827
X6.1433Y-4.0827
X6.1433Y-4.1827
X6.1433Y-4.2827
M30
